<?xml version="1.0" encoding="UTF-8"?>
<svg width="24px" height="24px" viewBox="0 0 24 24" version="1.1" xmlns="http://www.w3.org/2000/svg" xmlns:xlink="http://www.w3.org/1999/xlink">
    <!-- Generator: Sketch 52.2 (67145) - http://www.bohemiancoding.com/sketch -->
    <title>经信委</title>
    <desc>Created with Sketch.</desc>
    <g id="页面-1" stroke="none" stroke-width="1" fill="none" fill-rule="evenodd">
        <g id="画板" transform="translate(-610.000000, -300.000000)">
            <g id="分组-8" transform="translate(610.000000, 300.000000)">
                <g id="经信委">
                    <circle id="Oval-2" fill="#FFBE3C" cx="12" cy="12" r="12"></circle>
                    <g id="政府" transform="translate(3.000000, 3.000000)" fill="#FFFFFF" fill-rule="nonzero">
                        <path d="M17.4445149,10.2958606 C17.8491557,10.0710602 17.984036,9.48657899 17.984036,9.48657899 C17.984036,9.48657899 17.3545947,9.4416189 16.9499539,9.71137945 C16.8150737,9.80129962 16.7251535,9.98113999 16.6352333,10.1160203 C16.7251535,9.80129962 16.7701136,9.48657899 16.7701136,9.17185836 C16.9049938,9.12689827 17.2646746,9.0369781 17.5793952,8.81217764 C17.9390759,8.5424171 17.984036,7.95793592 17.984036,7.95793594 C17.984036,7.95793596 17.3545947,8.00289604 17.0398741,8.36257674 C16.9499539,8.45249691 16.8600337,8.63233728 16.8150737,8.81217764 C16.8150737,8.49745701 16.8150737,8.13777628 16.7701136,7.82305567 C16.9049938,7.77809558 17.2197145,7.64321531 17.489475,7.32849468 C17.8041956,7.01377405 17.7142755,6.42929289 17.7142755,6.42929289 C17.7142755,6.42929289 17.1297943,6.56417315 16.8600337,6.96881395 C16.7701136,7.10369422 16.7251535,7.28353458 16.6801934,7.46337495 C16.6352333,7.10369422 16.5453131,6.78897359 16.4553929,6.42929289 C16.5902732,6.33937272 16.8600337,6.15953235 17.0848342,5.79985163 C17.3096347,5.4401709 17.1747544,4.90064983 17.1747544,4.90064981 C17.1747544,4.90064979 16.6352333,5.12545027 16.4553929,5.57505117 C16.4104329,5.70993144 16.3654728,5.97969197 16.4104329,6.15953233 C16.2755526,5.79985161 16.1406723,5.4401709 16.005792,5.12545027 C16.0957122,5.0355301 16.3654728,4.81072964 16.500353,4.40608882 C16.6801934,4.00144802 16.4104329,3.5518471 16.4104329,3.55184712 C16.4104329,3.55184714 15.9158719,3.86656775 15.8259517,4.31616865 C15.7809916,4.45104892 15.8259517,4.67584937 15.8709118,4.85568974 C15.6910714,4.54096911 15.511231,4.22624848 15.2864306,3.91152785 C15.3763508,3.82160768 15.5561911,3.55184712 15.6461113,3.1472063 C15.7360315,2.7425655 15.4213109,2.29296458 15.4213109,2.2929646 C15.4213109,2.29296462 15.0166701,2.6976054 14.97171,3.1472063 C14.97171,3.28208657 15.0166701,3.46192693 15.1065902,3.64176729 C14.8817898,3.37200676 14.6569893,3.1022462 14.3872288,2.87744577 C14.4321889,2.78752559 14.6120293,2.47280496 14.6120292,2.06816414 C14.6120292,1.66352332 14.2523485,1.30384262 14.2523485,1.30384262 C14.2523486,1.30384262 13.9376279,1.75344351 13.982588,2.20304441 C13.982588,2.38288477 14.1174682,2.60768521 14.2073884,2.7425655 C13.8926678,2.47280496 13.5779472,2.24800451 13.3081866,2.06816414 C13.3531467,1.97824397 13.4430669,1.66352334 13.3981068,1.21392245 C13.3531467,0.809281644 12.9035458,0.539521089 12.9035458,0.539521089 C12.9035458,0.539521089 12.6787454,1.03408208 12.7686656,1.43872288 C12.8136257,1.61856325 12.993466,1.84336368 13.1283463,1.93328388 C12.7686656,1.70848342 12.4089849,1.52864308 12.0942642,1.39376281 C12.0942642,1.30384264 12.1841844,0.944161911 12.0493041,0.584481185 C11.9144239,0.224800459 11.464823,2.15580149e-08 11.4648229,3.06357775e-15 C11.4648229,-2.15580088e-08 11.3299427,0.539521089 11.509783,0.899201815 C11.5997032,1.07904218 11.8245037,1.25888254 11.9593839,1.34880271 C11.7345835,1.25888254 11.5547431,1.21392245 11.4198629,1.16896235 C11.3749028,1.07904218 11.1501023,0.854241719 10.8803418,0.809281623 C10.6555413,0.764321527 10.2509005,0.899201794 10.2509005,0.899201815 C10.2509005,0.899201837 10.4307409,1.16896235 10.8353817,1.30384262 C11.1051422,1.39376279 11.4198628,1.25888252 11.4648229,1.21392245 C11.7345835,1.30384262 11.9593839,1.39376281 12.1841844,1.52864308 C12.0493041,1.48368298 11.6896234,1.4387229 11.4648229,1.52864308 C11.0601821,1.66352334 10.7904216,2.15808433 10.7904216,2.15808433 C10.7904216,2.15808433 11.2400225,2.3379247 11.5997032,2.15808433 C12.004344,1.93328388 12.1841844,1.66352334 12.2291445,1.57360315 C12.5438651,1.70848342 12.9035458,1.93328388 13.2632266,2.20304441 C13.0833862,2.15808431 12.8136257,2.06816414 12.5888252,2.06816414 C12.1841844,2.11312424 11.8245037,2.56272514 11.8245037,2.56272514 C11.8245037,2.56272514 12.2741046,2.83248567 12.6337853,2.6976054 C13.0384261,2.56272514 13.2632266,2.33792468 13.3531467,2.24800451 C13.6229073,2.42784487 13.9376279,2.6976054 14.2523485,2.96736596 L14.3422687,3.05728613 C14.2073884,2.96736596 13.8926678,2.83248567 13.6678674,2.83248567 C13.2182665,2.83248567 12.8136256,3.1921664 12.8136257,3.1921664 C12.8136257,3.1921664 13.2182665,3.50688703 13.6229073,3.46192693 C14.0725082,3.41696683 14.3422687,3.1921664 14.4321889,3.1472063 C14.7019494,3.41696683 14.97171,3.73168746 15.2414705,4.09136819 C15.1065902,3.95648792 14.8368297,3.77664756 14.6120292,3.73168748 C14.1624283,3.64176731 13.6678674,3.95648794 13.6678674,3.95648792 C13.6678674,3.9564879 13.982588,4.36112872 14.4321889,4.36112874 C14.8817898,4.36112877 15.1965104,4.22624848 15.2864306,4.18128838 C15.5112311,4.49600901 15.6910714,4.81072964 15.8709118,5.17041037 C15.7360315,5.0355301 15.5561911,4.85568974 15.3763508,4.76576955 C14.97171,4.58592918 14.4321889,4.81072964 14.4321889,4.81072964 C14.4321889,4.81072964 14.7019494,5.26033054 15.1065902,5.39521081 C15.511231,5.48513098 15.8259517,5.39521081 15.960832,5.35025071 C16.0957122,5.70993144 16.2305925,6.02465206 16.3205127,6.38433279 C16.2305925,6.20449243 16.0507521,6.02465206 15.9158719,5.93473189 C15.5112311,5.70993144 14.9267499,5.79985163 14.9267499,5.79985163 C14.9267499,5.79985163 15.1065902,6.29441262 15.5112311,6.47425296 C15.8709118,6.65409332 16.2305925,6.60913323 16.3654728,6.60913323 C16.4553929,6.96881395 16.500353,7.32849466 16.5453131,7.73313548 C16.4553929,7.55329512 16.3654728,7.32849468 16.2305925,7.19361441 C15.8709118,6.87889378 15.2864306,6.92385388 15.2864306,6.92385386 C15.2864306,6.92385384 15.3763508,7.46337495 15.7360315,7.73313548 C16.0957122,7.95793594 16.4553929,8.00289602 16.5902732,8.00289604 C16.6352333,8.36257676 16.6352333,8.72225747 16.5902732,9.12689827 C16.5453131,8.94705791 16.4553929,8.67729737 16.3654728,8.5424171 C16.0507521,8.18273638 15.4213109,8.09281621 15.4213109,8.09281621 C15.4213109,8.09281621 15.4213109,8.67729737 15.7360315,8.94705793 C16.0507521,9.26177856 16.4104329,9.35169873 16.5453131,9.39665882 C16.500353,9.71137945 16.4553929,10.0710602 16.3654728,10.3857808 C16.3654728,10.2059404 16.3205127,9.98113999 16.2305925,9.80129962 C16.005792,9.35169873 15.3763508,9.17185836 15.3763508,9.17185836 C15.3763508,9.17185836 15.2864306,9.75633953 15.5561911,10.1160203 C15.8259517,10.475701 16.1406723,10.6105812 16.2755526,10.7005014 C16.1856324,11.015222 16.0507521,11.3299427 15.9158719,11.6446633 C15.960832,11.4648229 15.960832,11.1950624 15.8709118,11.015222 C15.7360315,10.5206611 15.1515503,10.2509005 15.1515503,10.2509005 C15.1515503,10.2509005 14.9267499,10.7904216 15.1515503,11.2400225 C15.3763508,11.6446633 15.6461113,11.8694638 15.7809916,11.9593839 C15.6461113,12.2291445 15.466271,12.5438651 15.2864306,12.7686656 C15.3313907,12.5888252 15.3763508,12.3640248 15.3313907,12.1841844 C15.2414705,11.6896234 14.7469095,11.2849826 14.7469095,11.2849826 C14.7469095,11.2849826 14.4321889,11.7795436 14.5670692,12.2741046 C14.7019494,12.6787454 14.9267499,12.9485059 15.0616301,13.0833862 C14.8817898,13.3081866 14.6569893,13.5779472 14.477149,13.8027476 C14.5670691,13.6229073 14.6120292,13.4430669 14.6120292,13.2632266 C14.6120292,12.7686656 14.1624283,12.2291445 14.1624283,12.2291445 C14.1624283,12.2291445 13.7577875,12.6787454 13.8027476,13.1733064 C13.8477077,13.5779472 14.0275481,13.8926678 14.1174682,14.0725082 C13.8926678,14.2973086 13.6678674,14.477149 13.3981068,14.6569893 C13.488027,14.5221091 13.6229073,14.3422687 13.6229073,14.1624284 C13.7128274,13.6678674 13.3531467,13.0384261 13.3531467,13.0384261 C13.3531467,13.0384261 12.8585857,13.4430669 12.8585857,13.9376279 C12.8585857,14.3872288 12.9485059,14.7019494 13.0384261,14.8817898 C12.7686656,15.0616302 12.498905,15.1965104 12.2291445,15.3313907 C12.3640247,15.1965104 12.498905,15.0166701 12.5888252,14.8817898 C12.8136257,14.3872288 12.5438651,13.7128275 12.5438651,13.7128275 C12.5438651,13.7128275 12.004344,14.0275481 11.8694638,14.5221091 C11.7795436,14.97171 11.8245037,15.3313907 11.8694638,15.5112311 C11.5997032,15.6461113 11.2849826,15.7360315 11.015222,15.7809916 C11.1501023,15.6910714 11.3299427,15.5112311 11.4198629,15.3763508 C11.6896234,14.9267499 11.5547431,14.2073884 11.5547431,14.2073884 C11.5547431,14.2073884 10.9253019,14.4321889 10.7454615,14.9267499 C10.5656211,15.3313907 10.5656211,15.6910714 10.5656211,15.8709118 C10.1609803,15.960832 9.80129962,16.0507521 9.48657899,16.1856324 C9.26177853,16.2755526 9.0369781,16.3654728 8.85713773,16.4104329 C8.67729737,16.3205127 8.45249693,16.2305925 8.22769647,16.1856324 C7.91297584,16.0507521 7.55329512,15.960832 7.14865432,15.8709118 C7.14865432,15.6910714 7.14865432,15.3313907 6.96881395,14.9267499 C6.74401349,14.4321889 6.15953233,14.2073885 6.15953233,14.2073884 C6.15953233,14.2073884 6.15953233,14.97171 6.42929286,15.4213109 C6.51921304,15.5561912 6.65409332,15.6910714 6.83393369,15.8259517 C6.56417315,15.7360315 6.2944126,15.6461113 5.97969197,15.5112311 C6.02465206,15.3313907 6.06961214,14.97171 5.97969197,14.5221091 C5.8897718,14.0275481 5.30529061,13.7128275 5.30529061,13.7128275 C5.30529061,13.7128275 5.03553008,14.3872288 5.26033054,14.8817898 C5.30529063,15.0166701 5.485131,15.1965104 5.62001124,15.3313907 C5.35025071,15.1965104 5.08049015,15.0166701 4.81072962,14.8817898 C4.90064979,14.7019494 4.99056998,14.3872288 4.99056998,13.9376279 C4.94560989,13.4430669 4.49600899,13.0384261 4.49600899,13.0384261 C4.49600899,13.0384261 4.13632826,13.6229073 4.22624846,14.1174683 C4.27120855,14.2523485 4.36112872,14.4321889 4.45104891,14.6120293 C4.22624846,14.4321889 3.95648792,14.2523485 3.73168746,14.0275481 C3.82160763,13.8926678 4.001448,13.5779472 4.04640809,13.1733064 C4.09136819,12.6787454 3.73168746,12.2291445 3.73168746,12.2291445 C3.73168746,12.2291445 3.28208657,12.7237055 3.28208657,13.2632266 C3.28208657,13.4430669 3.37200674,13.6229073 3.41696683,13.8027476 C3.19216637,13.5779472 3.01232603,13.3531467 2.83248567,13.0833862 C2.96736594,12.9485059 3.1921664,12.6787454 3.32704666,12.2741046 C3.46192693,11.8245037 3.1472063,11.2849826 3.1472063,11.2849826 C3.1472063,11.2849826 2.60768521,11.6896234 2.56272514,12.1841844 C2.51776504,12.3640248 2.56272514,12.5438651 2.60768521,12.7686656 C2.42784485,12.498905 2.24800448,12.2291445 2.11312424,11.9593839 C2.24800451,11.8694638 2.51776504,11.6446633 2.7425655,11.2400225 C2.96736596,10.7904216 2.7425655,10.2509005 2.7425655,10.2509005 C2.7425655,10.2509005 2.15808433,10.5656212 2.02320405,11.015222 C1.97824395,11.1950624 1.97824395,11.4198628 1.97824395,11.6446633 C1.84336368,11.3299427 1.70848342,11.015222 1.61856325,10.7005014 C1.75344351,10.6105812 2.06816414,10.475701 2.33792468,10.1160203 C2.65264531,9.71137945 2.56272514,9.12689827 2.56272514,9.12689827 C2.56272514,9.12689827 1.93328388,9.35169873 1.70848342,9.75633953 C1.61856325,9.89121979 1.57360315,10.1609803 1.57360315,10.3408207 C1.48368298,10.0261001 1.43872288,9.66641936 1.39376279,9.35169873 C1.52864305,9.30673863 1.88832378,9.21681846 2.20304441,8.90209783 C2.51776504,8.5873772 2.51776504,8.04785611 2.51776504,8.04785611 C2.51776504,8.04785611 1.88832378,8.13777628 1.61856325,8.49745701 C1.48368298,8.63233728 1.43872288,8.90209781 1.39376279,9.08193819 C1.34880269,8.72225747 1.34880269,8.36257676 1.34880269,8.00289604 C1.48368296,8.00289604 1.84336368,7.95793594 2.20304441,7.73313548 C2.60768521,7.50833502 2.65264531,6.92385386 2.65264531,6.92385386 C2.65264531,6.92385386 2.06816414,6.87889376 1.70848342,7.19361441 C1.57360315,7.32849468 1.43872288,7.55329514 1.39376279,7.73313548 C1.43872288,7.37345476 1.48368296,7.01377405 1.57360315,6.65409332 C1.70848342,6.65409332 2.06816414,6.69905342 2.42784487,6.51921306 C2.83248567,6.33937269 3.01232603,5.8448117 3.01232603,5.8448117 C3.01232603,5.8448117 2.42784487,5.70993144 2.02320405,5.97969197 C1.88832378,6.06961214 1.70848342,6.2494525 1.61856325,6.42929289 C1.70848342,6.06961216 1.8433637,5.70993146 1.97824395,5.39521081 C2.11312422,5.4401709 2.42784485,5.53009107 2.83248567,5.4401709 C3.32704666,5.26033054 3.5968072,4.81072964 3.5968072,4.81072964 C3.5968072,4.81072964 3.05728611,4.58592918 2.65264531,4.76576955 C2.47280494,4.85568972 2.29296458,5.03553008 2.15808431,5.17041037 C2.33792468,4.81072964 2.51776504,4.49600901 2.7425655,4.18128838 C2.83248567,4.22624848 3.1472063,4.36112874 3.5968072,4.36112874 C4.04640809,4.36112874 4.36112872,3.95648794 4.36112872,3.95648792 C4.36112872,3.9564879 3.86656773,3.64176729 3.41696683,3.73168748 C3.19216637,3.77664758 2.96736594,3.95648794 2.78752557,4.09136819 C3.01232603,3.73168746 3.28208657,3.41696683 3.5968072,3.1472063 C3.68672737,3.1921664 3.95648792,3.41696683 4.40608882,3.46192693 C4.81072962,3.50688703 5.21537044,3.1921664 5.21537044,3.1921664 C5.21537044,3.1921664 4.76576954,2.78752559 4.36112872,2.83248567 C4.13632826,2.83248567 3.86656773,3.01232603 3.68672739,3.05728613 L3.77664756,2.96736596 C4.09136819,2.69760542 4.36112872,2.42784487 4.67584935,2.24800451 C4.72080945,2.33792468 4.99056998,2.56272514 5.3952108,2.6976054 C5.7998516,2.83248567 6.20449243,2.56272514 6.20449243,2.56272514 C6.20449243,2.56272514 5.8448117,2.11312424 5.44017088,2.06816414 C5.21537042,2.02320405 4.94560989,2.11312424 4.76576954,2.20304441 C5.12545027,1.93328388 5.48513098,1.75344351 5.7998516,1.57360315 C5.8448117,1.61856325 6.02465206,1.93328388 6.42929286,2.15808433 C6.78897359,2.3379247 7.23857449,2.15808433 7.23857449,2.15808433 C7.23857449,2.15808433 6.96881395,1.66352334 6.60913323,1.52864308 C6.38433277,1.4387229 5.97969197,1.52864308 5.8448117,1.52864308 C6.06961216,1.39376281 6.33937269,1.30384262 6.60913323,1.21392245 C6.65409332,1.25888254 6.96881395,1.39376281 7.23857449,1.30384262 C7.59825521,1.16896235 7.82305565,0.899201815 7.82305565,0.899201815 C7.82305565,0.899201815 7.41841485,0.764321548 7.19361439,0.809281623 C6.92385386,0.854241719 6.6990534,1.12400225 6.60913323,1.16896235 C6.47425296,1.21392245 6.2944126,1.25888252 6.06961216,1.34880271 C6.20449243,1.25888254 6.42929289,1.07904218 6.51921306,0.899201815 C6.69905342,0.539521089 6.56417315,2.15580119e-08 6.56417313,0 C6.56417311,-2.15580119e-08 6.11457223,0.179840363 5.97969197,0.584481185 C5.8448117,0.989121986 5.8897718,1.30384262 5.93473187,1.39376281 C5.62001124,1.52864308 5.30529061,1.70848344 4.90064981,1.93328388 C5.03553008,1.79840361 5.21537044,1.61856325 5.26033054,1.43872288 C5.3952108,1.03408208 5.12545027,0.539521089 5.12545025,0.539521089 C5.12545023,0.539521089 4.72080945,0.809281623 4.63088928,1.21392245 C4.58592918,1.61856325 4.67584937,1.93328388 4.72080945,2.06816414 C4.45104891,2.24800451 4.13632828,2.47280494 3.82160765,2.7425655 C3.86656775,2.60768523 4.00144802,2.38288477 4.04640809,2.20304441 C4.09136819,1.75344351 3.77664756,1.30384262 3.77664756,1.30384262 C3.77664756,1.30384262 3.41696683,1.66352334 3.41696683,2.06816414 C3.41696683,2.47280494 3.5518471,2.78752557 3.64176729,2.87744577 C3.37200676,3.10224622 3.1472063,3.32704666 2.92240584,3.64176729 C2.96736594,3.50688703 3.05728611,3.32704666 3.01232603,3.1472063 C3.01232603,2.6976054 2.56272514,2.29296458 2.56272514,2.2929646 C2.56272514,2.29296462 2.24800451,2.7425655 2.33792468,3.1472063 C2.42784485,3.5518471 2.60768521,3.77664756 2.6976054,3.91152785 C2.47280494,4.18128838 2.2929646,4.49600901 2.11312424,4.85568974 C2.15808433,4.67584937 2.15808433,4.45104894 2.15808431,4.31616865 C2.06816414,3.86656775 1.57360315,3.55184712 1.57360315,3.55184712 C1.57360315,3.55184712 1.34880269,4.04640811 1.48368298,4.40608882 C1.61856325,4.81072962 1.88832378,5.03553008 1.97824395,5.12545027 C1.79840359,5.4401709 1.66352332,5.79985163 1.57360315,6.15953233 C1.57360315,5.97969197 1.57360315,5.75489153 1.52864305,5.57505117 C1.34880269,5.12545027 0.809281623,4.90064981 0.809281623,4.90064981 C0.809281623,4.90064981 0.674401356,5.39521081 0.899201794,5.79985163 C1.12400225,6.15953235 1.39376279,6.33937272 1.52864305,6.42929289 C1.43872288,6.74401352 1.34880269,7.10369424 1.30384262,7.46337495 C1.25888252,7.28353458 1.21392244,7.10369422 1.12400225,6.96881395 C0.854241719,6.56417315 0.269760534,6.42929289 0.269760534,6.42929289 C0.269760534,6.42929289 0.179840363,6.96881398 0.494560993,7.32849468 C0.764321527,7.64321531 1.07904216,7.77809558 1.21392242,7.82305567 C1.16896233,8.1377763 1.16896233,8.49745703 1.16896235,8.81217764 C1.12400225,8.63233728 1.03408208,8.49745701 0.94416189,8.36257674 C0.62944126,8.00289602 0,7.95793594 0,7.95793594 C0,7.95793594 0.0449600961,8.5424171 0.404640801,8.81217764 C0.719361431,9.08193817 1.07904216,9.17185836 1.21392242,9.17185836 L1.34880269,10.1160203 C1.25888252,9.98113999 1.16896233,9.80129962 1.03408206,9.71137945 C0.62944126,9.44161892 1.53178888e-16,9.53153909 1.53178888e-16,9.53153909 C1.53178888e-16,9.53153909 0.134880267,10.1160203 0.539521089,10.3408207 C0.899201815,10.5656212 1.25888252,10.5656212 1.43872288,10.5656212 C1.52864305,10.8803418 1.61856325,11.1501023 1.70848342,11.464823 C1.61856325,11.3299427 1.48368296,11.1950624 1.34880269,11.1501023 C0.899201794,10.9253019 0.269760534,11.1051422 0.269760534,11.1051422 C0.269760534,11.1051422 0.494560993,11.6446633 0.94416189,11.7795436 C1.34880269,11.9144239 1.70848342,11.8694638 1.84336368,11.8694638 C1.97824395,12.1392243 2.11312422,12.4539449 2.29296458,12.7237055 C2.15808431,12.5888252 1.97824395,12.498905 1.84336368,12.4539449 C1.34880269,12.3190647 0.764321527,12.5888252 0.764321527,12.5888252 C0.764321527,12.5888252 1.07904216,13.0833862 1.57360315,13.1733064 C2.02320405,13.2632266 2.38288477,13.1283463 2.51776504,13.0833862 C2.6976054,13.3531467 2.92240584,13.6229073 3.1022462,13.8477077 C2.92240584,13.7577876 2.74256548,13.6678674 2.60768521,13.6229073 C2.11312422,13.5329871 1.52864305,13.9376279 1.52864305,13.9376279 C1.52864305,13.9376279 1.93328385,14.3872288 2.42784487,14.3872288 C2.87744577,14.3872288 3.23712649,14.2073884 3.37200676,14.1174683 C3.59680722,14.3422687 3.82160765,14.5670692 4.09136819,14.7469095 C3.91152783,14.7019494 3.73168746,14.6120293 3.5518471,14.6120293 C3.01232601,14.6569894 2.51776504,15.1065903 2.51776504,15.1065903 C2.51776504,15.1065903 3.01232603,15.5112311 3.50688702,15.3763508 C3.95648792,15.2864306 4.27120855,15.0616302 4.40608882,14.97171 C4.67584935,15.1515503 4.90064981,15.3313907 5.17041035,15.466271 C4.99056998,15.4213109 4.81072962,15.4213109 4.67584935,15.466271 C4.13632826,15.6011512 3.73168746,16.1856324 3.73168746,16.1856324 C3.73168746,16.1856324 4.31616863,16.4553929 4.76576954,16.2755526 C5.17041035,16.0957122 5.4401709,15.8259517 5.57505117,15.6910714 C5.8448117,15.8259517 6.11457226,15.9158719 6.38433279,16.0057921 C6.20449243,16.0057921 6.02465206,16.0507521 5.8897718,16.0957122 C5.3952108,16.3205127 5.08049017,16.9499539 5.08049017,16.9499539 C5.08049017,16.9499539 5.70993143,17.1297943 6.15953233,16.8600337 C6.56417313,16.5902732 6.78897359,16.2755526 6.87889376,16.1406723 C7.50833502,16.2755526 8.04785611,16.4553929 8.49745701,16.6352333 C7.68817538,17.0398741 7.37345475,17.4445149 7.37345475,17.4445149 L7.64321531,17.7142755 C7.64321531,17.7142755 8.00289604,17.2646746 8.81217764,16.8150737 C9.62145926,17.2646746 9.98113999,17.7142755 9.98113999,17.7142755 L10.2509005,17.4445149 C10.2509005,17.4445149 9.93617989,17.0398741 9.12689827,16.6352333 C9.57649916,16.4553929 10.1160203,16.2755526 10.7454615,16.1406723 C10.8353817,16.3205127 11.0601821,16.6352333 11.4648229,16.8600337 C11.9144238,17.1297943 12.5438651,16.9499539 12.5438651,16.9499539 C12.5438651,16.949954 12.2291445,16.2755526 11.7345835,16.0957122 C11.5997032,16.0507521 11.4198629,16.0057921 11.2400225,16.0057921 C11.509783,15.9158719 11.7795436,15.8259517 12.0493041,15.6910714 C12.1841844,15.8259517 12.4539449,16.0957122 12.8585857,16.2755526 C13.3531467,16.4553929 13.8926678,16.1856324 13.8926678,16.1856324 C13.8926678,16.1856324 13.488027,15.6011513 12.9485059,15.466271 C12.8136257,15.4213109 12.5888252,15.466271 12.4089848,15.466271 C12.6787454,15.3313907 12.9035458,15.1515503 13.1733064,14.97171 C13.3081866,15.1065902 13.6229073,15.2864306 14.0725082,15.3763508 C14.5670692,15.466271 15.0616302,15.1065903 15.0616301,15.1065903 C15.0616301,15.1065903 14.5670691,14.6120293 14.0725082,14.6120293 C13.8926678,14.6120293 13.7128274,14.6569894 13.5329871,14.7469095 C13.8027476,14.5670692 14.0275481,14.3422687 14.2523485,14.1174683 C14.3872288,14.2073884 14.7469095,14.3422687 15.1965104,14.3872288 C15.6910714,14.3872288 16.1406723,13.9376279 16.1406723,13.9376279 C16.1406723,13.9376279 15.6011512,13.5329871 15.0616301,13.6229073 C14.8817898,13.6229073 14.7019494,13.7128275 14.5670692,13.8477077 C14.7918696,13.6229073 14.97171,13.3531467 15.1515503,13.0833862 C15.2864306,13.1283463 15.6461113,13.2182665 16.0957122,13.1733064 C16.5902732,13.0833862 16.9049938,12.5888252 16.9049938,12.5888252 C16.9049938,12.5888252 16.3205127,12.3190647 15.8259517,12.4539449 C15.6910714,12.498905 15.5112311,12.6337853 15.3763508,12.7237055 C15.5561911,12.453945 15.6910714,12.1841844 15.8259517,11.8694638 C16.005792,11.9144239 16.3205127,11.9144239 16.7251535,11.7795436 C17.1747544,11.6446633 17.3995548,11.1051422 17.3995548,11.1051422 C17.3995548,11.1051422 17.0848342,10.8803418 16.6352333,11.1051422 C16.500353,11.1950624 16.3654728,11.2849826 16.2755526,11.4198629 C16.3654728,11.1501023 16.500353,10.8353817 16.5453131,10.5206611 C16.7251535,10.5206611 17.0848342,10.5206611 17.4445149,10.2958606 Z M5.75489153,10.9253019 L5.75489153,11.4198629 L5.17041035,11.4198629 L5.17041035,11.9144239 L4.72080945,11.9144239 L4.72080945,12.4089849 L13.3081866,12.4089849 L13.3081866,11.9144239 L12.9035458,11.9144239 L12.9035458,11.4198629 L12.3190647,11.4198629 L12.3190647,8.04785611 L12.6337853,8.04785611 L12.6337853,7.73313548 C12.6337853,7.55329512 12.4539449,7.37345476 12.2741046,7.37345478 L11.015222,7.37345478 C10.8353817,7.37345478 10.6555413,7.55329514 10.6555413,7.73313548 L10.6555413,8.04785611 L10.970262,8.04785611 L10.970262,10.9253019 L9.75633953,10.9253019 L9.75633953,8.04785611 L10.0710602,8.04785611 L10.0710602,7.73313548 C10.0710602,7.55329512 9.89121979,7.37345476 9.71137943,7.37345478 L8.45249691,7.37345478 C8.27265655,7.37345478 8.09281618,7.55329514 8.09281621,7.73313548 L8.09281621,8.04785611 L8.36257674,8.04785611 L8.36257674,10.9253019 L7.19361439,10.9253019 L7.19361439,8.04785611 L7.46337495,8.04785611 L7.46337495,7.73313548 C7.46337495,7.55329512 7.28353458,7.37345476 7.10369422,7.37345478 L5.8448117,7.37345478 C5.66497134,7.37345478 5.48513098,7.55329514 5.48513098,7.73313548 L5.48513098,8.04785611 L5.7998516,8.04785611 L5.75489153,10.9253019 Z M4.45104891,6.78897359 L4.45104891,7.01377405 L13.5329871,7.01377405 L13.5329871,6.78897359 C13.5329871,6.51921306 13.3981068,6.2494525 13.1283463,6.11457226 L9.30673863,4.04640811 C9.08193817,3.91152785 8.85713773,3.91152785 8.63233727,4.04640811 L4.81072962,6.11457226 C4.63088926,6.24945252 4.45104889,6.51921306 4.45104891,6.78897359 Z M7.50833502,5.8448117 L8.67729737,5.21537044 C8.90209783,5.08049018 9.12689827,5.08049018 9.35169873,5.21537044 L10.5206611,5.8448117 C10.5656211,5.8448117 10.5656211,5.8897718 10.5656211,5.93473189 C10.5656211,5.97969197 10.5206611,5.97969199 10.475701,5.97969197 L7.59825521,5.97969197 C7.55329512,5.97969197 7.50833504,5.93473187 7.50833502,5.93473189 C7.46337493,5.8897718 7.46337493,5.84481172 7.50833502,5.8448117 Z" id="形状"></path>
                    </g>
                </g>
            </g>
        </g>
    </g>
</svg>