<?xml version="1.0" encoding="UTF-8"?>
<svg width="15px" height="15px" viewBox="0 0 15 15" version="1.1" xmlns="http://www.w3.org/2000/svg" xmlns:xlink="http://www.w3.org/1999/xlink">
    <!-- Generator: Sketch 52.2 (67145) - http://www.bohemiancoding.com/sketch -->
    <title>批量告知</title>
    <desc>Created with Sketch.</desc>
    <g id="页面-1" stroke="none" stroke-width="1" fill="none" fill-rule="evenodd">
        <g id="评价信息告知" transform="translate(-264.000000, -224.000000)" fill="#FFFFFF" fill-rule="nonzero">
            <g id="Button/Primary/Icon/Medium" transform="translate(250.000000, 215.000000)">
                <path d="M20.16122,17.3446745 L14.4942992,17.3446745 C14.2210958,17.3446745 14.0000018,17.565749 14.0000018,17.8389525 L14.0000018,23.5058928 C14.0000018,23.7790962 14.2210763,24.0001707 14.4942992,24.0001707 L20.1612395,24.0001707 C20.434443,24.0001707 20.655537,23.7790962 20.655537,23.5058928 L20.655537,17.838972 C20.6555175,17.565749 20.434443,17.3446745 20.16122,17.3446745 Z M19.6669421,23.0116148 L14.9885772,23.0116148 L14.9885772,18.3332499 L19.6669421,18.3332499 L19.6669421,23.0116148 Z M28.5057221,9.00019201 L22.8387818,9.00019201 C22.5655783,9.00019201 22.3445038,9.22126649 22.3445038,9.49448947 L22.3445038,15.1614298 C22.3445038,15.4346332 22.5655783,15.6557077 22.8387818,15.6557077 L28.5057221,15.6557077 C28.7789255,15.6557077 29,15.4346332 29,15.1614298 L29,9.49446994 C29,9.22126649 28.7789255,9.00019201 28.5057221,9.00019201 Z M28.0114246,14.6671323 L23.3330597,14.6671323 L23.3330597,9.9887674 L28.0114246,9.9887674 L28.0114246,14.6671323 Z M28.5057221,17.3446745 L22.8387818,17.3446745 C22.5655783,17.3446745 22.3445038,17.565749 22.3445038,17.8389525 L22.3445038,23.5058928 C22.3445038,23.7790962 22.5655783,24.0001707 22.8387818,24.0001707 L28.5057221,24.0001707 C28.7789255,24.0001707 29,23.7790962 29,23.5058928 L29,17.838972 C29,17.565749 28.7789255,17.3446745 28.5057221,17.3446745 Z M28.0114246,23.0116148 L23.3330597,23.0116148 L23.3330597,18.3332499 L28.0114246,18.3332499 L28.0114246,23.0116148 Z M20.3388569,9.21788758 L16.8214114,14.4209406 L14.8196512,12.6711339 C14.6144947,12.4915633 14.3017014,12.511368 14.1221504,12.7179503 C13.9425798,12.9235756 13.9633416,13.2358806 14.1689668,13.4154511 L16.5921338,15.5335591 C16.6822665,15.6122284 16.7978303,15.6556108 16.9174662,15.6556882 C16.9387767,15.6556831 16.9600625,15.6542345 16.9811772,15.6513522 C17.1217749,15.63345 17.247777,15.5556626 17.3267831,15.4379926 L21.1575103,9.7710523 C21.3105182,9.54515359 21.2511627,9.23767276 21.0247757,9.08513352 C20.7993653,8.93165677 20.4913962,8.99150059 20.3388569,9.21788758 Z" id="批量告知"></path>
            </g>
        </g>
    </g>
</svg>