<?xml version="1.0" encoding="UTF-8"?>
<svg width="24px" height="24px" viewBox="0 0 24 24" version="1.1" xmlns="http://www.w3.org/2000/svg" xmlns:xlink="http://www.w3.org/1999/xlink">
    <!-- Generator: Sketch 52.2 (67145) - http://www.bohemiancoding.com/sketch -->
    <title>企业</title>
    <desc>Created with Sketch.</desc>
    <g id="页面-1" stroke="none" stroke-width="1" fill="none" fill-rule="evenodd">
        <g id="画板" transform="translate(-680.000000, -300.000000)">
            <g id="分组-8" transform="translate(610.000000, 300.000000)">
                <g id="企业" transform="translate(70.000000, 0.000000)">
                    <circle id="Oval-2" fill="#FFBE3C" cx="12" cy="12" r="12"></circle>
                    <path d="M17.4055455,18.0955455 L17.4055455,5.20604545 L15.5985455,4 L9.01168182,6.93977273 L9.01168182,9.21477273 L5.37168182,10.4822727 L5.37168182,18.0955455 L5,18.0955455 L5,19.0002273 L6.18831818,19.0002273 L6.18831818,11.0099545 L11.0166364,9.4275 L11.0166364,19.0002273 L14.3594091,19.0002273 L14.3594091,18.0205 L13.6166364,18.0205 L13.6166364,9.27622727 L11.864,8.22086364 L9.90218182,8.90395455 L9.90218182,7.46686364 L14.6566364,5.35613636 L14.6566364,18.9996364 L18,18.9996364 L18,18.0949545 L17.4055455,18.0949545 L17.4055455,18.0955455 Z M6.78277273,13.0450455 L10.2738636,11.9146364 L10.2738636,10.4072273 L6.78277273,11.6132727 L6.78277273,13.0450455 Z M6.78277273,15.0050909 L10.2738636,14.2510909 L10.2738636,12.7436818 L6.78277273,13.6483636 L6.78277273,15.0050909 Z M6.78277273,17.0401818 L10.2738636,16.5875455 L10.2738636,15.0801364 L6.78277273,15.6078182 L6.78277273,17.0401818 Z M6.78277273,18.9996364 L10.2738636,18.924 L10.2738636,17.4165909 L6.78277273,17.5678636 L6.78277273,18.9996364 Z" id="形状" fill="#FFFFFF" fill-rule="nonzero"></path>
                </g>
            </g>
        </g>
    </g>
</svg>