<?xml version="1.0" encoding="UTF-8"?>
<svg width="27px" height="30px" viewBox="0 0 27 30" version="1.1" xmlns="http://www.w3.org/2000/svg" xmlns:xlink="http://www.w3.org/1999/xlink">
    <!-- Generator: Sketch 52.2 (67145) - http://www.bohemiancoding.com/sketch -->
    <title>企业</title>
    <desc>Created with Sketch.</desc>
    <g id="页面-1" stroke="none" stroke-width="1" fill="none" fill-rule="evenodd">
        <g id="评价信息告知--编辑" transform="translate(-263.000000, -133.000000)" fill-rule="nonzero">
            <g id="企业" transform="translate(263.000000, 133.000000)">
                <path d="M10.1461459,24.7769454 L3.4622265,20.9683535 C3.26178181,20.9023085 3.04675932,20.957346 2.90098136,21.1114508 L0.0510222853,25.6979055 L0,25.8556796 L0,25.9804311 C0.0182222447,26.1748968 0.174933549,26.3326708 0.404533833,26.3326708 L4.25671637,26.5454823 C4.39884988,26.5454823 4.46809441,26.6151965 4.53733894,26.6885797 L6.89529741,29.8403914 C7.10667545,30.0532029 7.45654255,30.0532029 7.59867605,29.8403914 L10.3065016,25.32732 C10.4304129,25.1328543 10.3575239,24.9200428 10.1461459,24.7769454 Z M26.9470555,25.6245222 L24.0970964,21.0380676 C23.9549629,20.8252561 23.7472293,20.755542 23.5358513,20.8986394 L16.8519319,24.6852163 C16.6405539,24.8283137 16.5713094,25.0411252 16.7097984,25.2502675 L19.417624,29.7670081 C19.5597575,29.9798196 19.9096246,29.9798196 20.1210026,29.7670081 L22.4607389,26.6335423 C22.5299834,26.560159 22.5992279,26.4904449 22.7413614,26.4904449 L26.593544,26.2776334 C26.9470555,26.2813026 27.0855446,25.9253937 26.9470555,25.6245222 Z M24.589097,17.5340162 C24.589097,18.2421648 24.1699854,18.9686592 23.5176291,19.3208989 L14.5449957,24.3329766 C13.8780616,24.6888855 13.0835717,24.6888855 12.4166376,24.3329766 L3.39298197,19.1778016 C2.74427006,18.8182235 2.33609178,18.1357591 2.31786953,17.3909188 L2.31786953,7.13927534 C2.31786953,6.43112674 2.75884785,5.70463232 3.39298197,5.3523926 L12.3619708,0.266931662 C13.028905,-0.0889772206 13.8233949,-0.0889772206 14.490329,0.266931662 L23.5139846,5.42210671 C24.166341,5.77434643 24.5854526,6.4861642 24.5854526,7.28237273 L24.589097,17.5340162 Z" id="形状" fill="#28BB87"></path>
                <path d="M18.9274101,9.74725275 C18.8361882,9.95070644 18.7048285,10.0901099 18.5296823,10.1579278 C18.3545361,10.2257457 18.1319545,10.2144427 17.8582886,10.1202512 C17.4605608,9.9733124 17.0883752,9.81507064 16.7344339,9.63799058 C16.3841415,9.46467818 16.0265514,9.25368917 15.6689613,9.00879121 C15.3077222,8.76389325 14.9355366,8.47755102 14.5524043,8.14976452 C14.169272,7.82197802 13.7423532,7.43014129 13.2825944,6.97802198 C13.1840747,6.87629513 13.0928527,6.82354788 13.0089285,6.82354788 C12.9250043,6.82354788 12.8337823,6.87629513 12.7352626,6.97802198 C12.4141613,7.32841444 12.0821133,7.65620094 11.7500653,7.95761381 C11.4143684,8.25902669 11.0640761,8.54536892 10.6955393,8.8166405 C10.3270025,9.08414443 9.9329236,9.33657771 9.5169514,9.57394035 C9.1009792,9.80753532 8.64122046,10.033595 8.14497293,10.2483516 C7.87860477,10.3576138 7.65237427,10.3877551 7.46263257,10.3312402 C7.27289086,10.2747253 7.12693571,10.0863422 7.02841598,9.76232339 C6.97733167,9.51365777 6.99557607,9.3177394 7.07950028,9.16703297 C7.1634245,9.01632653 7.30937965,8.89199372 7.52466351,8.79026688 C7.96982674,8.58681319 8.38944781,8.37205651 8.78352674,8.15729984 C9.17760566,7.93877551 9.55708907,7.70141287 9.92562584,7.44144427 C10.2941626,7.18147567 10.6481039,6.89136578 10.9910985,6.5711146 C11.3340931,6.25086342 11.6807366,5.88916797 12.0273801,5.48979592 C12.1769841,5.32025118 12.3265882,5.19591837 12.4725433,5.11679749 C12.6221474,5.04144427 12.7790492,5 12.9432487,5 C13.2497545,5 13.5453137,5.13940345 13.837224,5.42197802 C14.3152272,5.90047096 14.7603904,6.311146 15.1690648,6.6577708 C15.5777393,7.0043956 15.9681693,7.30204082 16.3367061,7.54693878 C16.7052429,7.7956044 17.0555352,8.00282575 17.3912321,8.17613815 C17.726929,8.34568289 18.0553281,8.49638932 18.3764294,8.6244898 C18.6756375,8.74505495 18.8617303,8.9032967 18.9420056,9.09921507 C19.022281,9.29513344 19.0186321,9.50235479 18.9347079,9.7133438 L18.9274101,9.74725275 Z M18.14655,15.4854003 C18.4348115,15.4854003 18.6245532,15.5532182 18.7157752,15.6850863 C18.8069971,15.8169545 18.8507837,16.0015699 18.8507837,16.2427002 C18.8507837,16.4649922 18.7996994,16.6458399 18.7011796,16.789011 C18.6026599,16.9284144 18.4165671,17 18.1429012,17 L7.82387158,17 C7.53561015,17 7.34586844,16.9284144 7.25829535,16.789011 C7.17072225,16.6496075 7.12693571,16.4649922 7.12693571,16.2427002 C7.12693571,16.0053375 7.16707338,15.8169545 7.24369983,15.6850863 C7.32397517,15.5532182 7.51371687,15.4854003 7.8202227,15.4854003 L9.18490342,15.4854003 L9.18490342,10.5799058 C9.18490342,10.2822606 9.25058324,10.0863422 9.38194288,9.99215071 C9.51330252,9.89795918 9.69939535,9.85274725 9.94022135,9.85274725 C10.1482075,9.85274725 10.3233536,9.90549451 10.4693088,10.0072214 C10.615264,10.1089482 10.6845927,10.3010989 10.6845927,10.5836735 L10.6845927,15.489168 L12.7571559,15.489168 L12.7571559,9.27252747 C12.7571559,8.97488226 12.8264846,8.77896389 12.9614931,8.68477237 C13.0965016,8.59058085 13.2789456,8.54536892 13.5015272,8.54536892 C13.716811,8.54536892 13.8956061,8.59811617 14.0415613,8.69984301 C14.1875164,8.80156986 14.2568451,8.99372057 14.2568451,9.27629513 L14.2568451,11.0810047 L17.4094765,11.0810047 C17.6831424,11.0810047 17.8692352,11.1412873 17.967755,11.2656201 C18.0662747,11.3899529 18.117359,11.5745683 18.117359,11.8232339 C18.117359,12.0605965 18.0626258,12.2489796 17.9495106,12.3808477 C17.8363953,12.5127159 17.6576003,12.5805338 17.4094765,12.5805338 L14.2568451,12.5805338 L14.2568451,15.489168 L18.14655,15.489168 L18.14655,15.4854003 Z" id="形状" fill="#FFFFFF"></path>
            </g>
        </g>
    </g>
</svg>