<?xml version="1.0" encoding="UTF-8"?>
<svg width="16px" height="16px" viewBox="0 0 16 16" version="1.1" xmlns="http://www.w3.org/2000/svg" xmlns:xlink="http://www.w3.org/1999/xlink">
    <!-- Generator: Sketch 52.2 (67145) - http://www.bohemiancoding.com/sketch -->
    <title>编辑</title>
    <desc>Created with Sketch.</desc>
    <g id="页面-1" stroke="none" stroke-width="1" fill="none" fill-rule="evenodd">
        <g id="企业综合评价" transform="translate(-1137.000000, -307.000000)">
            <g id="分组-3" transform="translate(1137.000000, 307.000000)">
                <g id="分组-5">
                    <g id="编辑">
                        <path d="M0,8 C5.41083001e-16,12.418278 3.581722,16 8,16 C12.418278,16 16,12.418278 16,8 C16,3.581722 12.418278,2.705415e-16 8,0 C3.581722,-2.705415e-16 5.41083001e-16,3.581722 0,8 Z" id="路径" fill="#108EE9"></path>
                        <path d="M7.64444444,10.2666667 L7.24444444,10.6666667 C7.15555555,10.7111111 7.06666666,10.7111111 7.02222222,10.7111111 L4.57777778,11.1111111 C4.44444445,11.1111111 4.31111111,11.0666667 4.17777778,10.9333333 C4.08888889,10.8444444 4,10.7111111 4.04444444,10.5333333 L4.48888889,8.17777778 C4.48888889,8.08888889 4.48888889,8 4.53333333,7.91111111 L4.48888889,7.86666667 L4.93333333,7.42222222 L9.15555556,3.2 C9.33333334,2.97777778 9.68888889,2.97777778 9.86666667,3.2 L11.8666667,5.2 C12.0444445,5.42222222 12.0888889,5.77777778 11.9111111,6 L7.64444444,10.2666667 Z M4.66666667,10.4444444 L6.66666667,10.1333333 L5.06666667,8.53333333 L4.66666667,10.4444444 Z M11.2888889,5.6 L9.46666667,3.77777778 L5.37777778,7.86666667 L7.2,9.68888889 L11.2888889,5.6 Z" id="形状" fill="#FFFFFF" fill-rule="nonzero"></path>
                        <path d="M11.3777778,12.4444444 L4.97777778,12.4444444 C4.8,12.4444444 4.66666667,12.3111111 4.66666667,12.1333333 C4.66666667,11.9555555 4.8,11.8222222 4.97777778,11.8222222 L11.3777778,11.8222222 C11.5555556,11.8222222 11.6888889,11.9555555 11.6888889,12.1333333 C11.6888889,12.3111111 11.5555556,12.4444444 11.3777778,12.4444444 Z" id="路径" fill="#FFFFFF"></path>
                    </g>
                </g>
            </g>
        </g>
    </g>
</svg>