<?xml version="1.0" encoding="UTF-8"?>
<svg width="72px" height="72px" viewBox="0 0 72 72" version="1.1" xmlns="http://www.w3.org/2000/svg" xmlns:xlink="http://www.w3.org/1999/xlink">
    <!-- Generator: Sketch 52.2 (67145) - http://www.bohemiancoding.com/sketch -->
    <title>完成-绿</title>
    <desc>Created with Sketch.</desc>
    <g id="页面-1" stroke="none" stroke-width="1" fill="none" fill-rule="evenodd">
        <g id="新增年度评价3" transform="translate(-745.000000, -288.000000)">
            <g id="完成-绿" transform="translate(745.000000, 288.000000)">
                <path d="M36,72 C16.115625,72 0,55.884375 0,36 C0,16.115625 16.115625,0 36,0 C55.884375,0 72,16.115625 72,36 C72,55.884375 55.884375,72 36,72 L36,72 Z" id="Shape-Copy-3" fill="#259D9E" transform="translate(36.000000, 36.000000) scale(1, -1) translate(-36.000000, -36.000000) "></path>
                <path d="M54.98,19 C42.82,26.46 34,35.88 30.02,40.6 L20.3,32.98 L16,36.44 L32.78,53.52 C35.66,46.12 44.82,31.66 56,21.38 L54.98,19 Z" id="路径-copy" fill="#FFFFFF"></path>
            </g>
        </g>
    </g>
</svg>