<?xml version="1.0" encoding="UTF-8"?>
<svg width="16px" height="16px" viewBox="0 0 16 16" version="1.1" xmlns="http://www.w3.org/2000/svg" xmlns:xlink="http://www.w3.org/1999/xlink">
    <!-- Generator: Sketch 52.2 (67145) - http://www.bohemiancoding.com/sketch -->
    <title>更多</title>
    <desc>Created with Sketch.</desc>
    <g id="页面-1" stroke="none" stroke-width="1" fill="none" fill-rule="evenodd">
        <g id="企业综合评价" transform="translate(-1160.000000, -307.000000)" fill="#FD8C01" fill-rule="nonzero">
            <g id="分组-3" transform="translate(1137.000000, 307.000000)">
                <g id="分组-5">
                    <g id="更多" transform="translate(23.000000, 0.000000)">
                        <path d="M8,0 C12.4181818,0 16,3.58181819 16,8 C16,12.4181818 12.4181818,16 8,16 C3.58181819,16 0,12.4181818 0,8 C0,3.58181819 3.58181819,0 8,0 Z M5.09090909,8.96969697 C5.62645794,8.96969697 6.06060606,8.53554885 6.06060606,8 C6.06060606,7.46445115 5.62645794,7.03030303 5.09090909,7.03030303 C4.55536026,7.03030305 4.12121215,7.46445116 4.12121215,8 C4.12121215,8.53554884 4.55536026,8.96969695 5.09090909,8.96969697 Z M8,8.96969697 C8.53554885,8.96969697 8.96969697,8.53554885 8.96969697,8 C8.96969697,7.46445115 8.53554885,7.03030303 8,7.03030303 C7.46445116,7.03030305 7.03030306,7.46445116 7.03030306,8 C7.03030306,8.53554884 7.46445116,8.96969695 8,8.96969697 Z M10.9090909,8.96969697 C11.4446398,8.96969697 11.8787879,8.53554885 11.8787879,8 C11.8787879,7.46445115 11.4446398,7.03030303 10.9090909,7.03030303 C10.3735421,7.03030305 9.93939397,7.46445116 9.93939397,8 C9.93939397,8.53554884 10.3735421,8.96969695 10.9090909,8.96969697 Z" id="形状"></path>
                    </g>
                </g>
            </g>
        </g>
    </g>
</svg>