<?xml version="1.0" encoding="UTF-8"?>
<svg width="200px" height="200px" viewBox="0 0 200 200" version="1.1" xmlns="http://www.w3.org/2000/svg" xmlns:xlink="http://www.w3.org/1999/xlink">
    <!-- Generator: Sketch 52.2 (67145) - http://www.bohemiancoding.com/sketch -->
    <title>暂无数据</title>
    <desc>Created with Sketch.</desc>
    <g id="页面-1" stroke="none" stroke-width="1" fill="none" fill-rule="evenodd">
        <g id="画板" transform="translate(-703.000000, -512.000000)">
            <g id="暂无数据" transform="translate(703.000000, 512.000000)">
                <g transform="translate(0.000000, 0.000000)">
                    <path d="M19.8594051,134.534521 C16.7380342,134.534521 14.2409375,132.037425 14.2409375,128.916054 L14.2409375,6.55831584 C14.2409375,3.43694498 16.7380342,0.939848283 19.8594051,0.939848281 L193.407625,0.939848281 C196.528996,0.939848281 199.026093,3.43694497 199.026093,6.55831584 L199.026093,128.707962 C199.026093,131.829333 196.528996,134.32643 193.407625,134.32643 L19.8594051,134.32643 L19.8594051,134.534521 Z" id="路径" fill="#FFFFFF"></path>
                    <path d="M193.407625,1.56412246 C196.112813,1.56412246 198.401819,3.85312776 198.401819,6.55831584 L198.401819,128.707962 C198.401819,131.413151 196.112813,133.702156 193.407625,133.702156 L19.8594051,133.702156 C17.154217,133.702156 14.8652117,131.413151 14.8652117,128.707962 L14.8652117,6.55831584 C14.8652117,3.85312776 17.154217,1.56412245 19.8594051,1.56412246 L193.407625,1.56412246 Z M193.407625,0.107482718 L19.8594051,0.107482718 C16.3218514,0.107482718 13.4085719,3.02076219 13.4085719,6.55831584 L13.4085719,128.707962 C13.4085719,132.245516 16.3218514,135.158796 19.8594051,135.158796 L193.407625,135.158796 C196.945179,135.158796 199.858458,132.245516 199.858458,128.707962 L199.858458,6.55831584 C199.858458,3.02076219 196.945179,0.107482717 193.407625,0.107482718 Z" id="形状" fill="#BDC5D3" fill-rule="nonzero"></path>
                    <path d="M184.875878,46.3037715 L147.627519,46.3037715 C146.587062,46.3037715 145.546605,45.2633146 145.546605,44.2228576 C145.546605,43.1824007 146.587062,42.1419437 147.627519,42.1419437 L184.875878,42.1419437 C185.916335,42.1419437 186.956792,43.1824007 186.956792,44.2228576 C186.956792,45.2633146 185.916335,46.3037716 184.875878,46.3037715 Z M171.974212,65.0319968 L134.933944,65.0319968 C133.893487,65.0319968 132.85303,63.9915398 132.85303,62.9510828 C132.85303,61.9106259 133.893487,60.8701689 134.933944,60.8701689 L172.182303,60.8701689 C173.22276,60.8701689 174.263217,61.9106259 174.263217,62.9510828 C174.263217,63.9915398 173.22276,65.0319968 171.974212,65.0319968 Z M184.875878,84.8006789 L147.627519,84.8006789 C146.587062,84.8006789 145.546605,83.760222 145.546605,82.719765 C145.546605,81.679308 146.587062,80.6388511 147.627519,80.6388511 L184.875878,80.6388511 C185.916335,80.6388511 186.956792,81.679308 186.956792,82.719765 C186.956792,83.9683133 185.916335,84.8006789 184.875878,84.8006789 Z" id="形状" fill="#C3CCDB" fill-rule="nonzero"></path>
                    <path d="M9.45483551,141.609629 C5.0849163,141.609629 1.54736265,138.072075 1.54736264,133.702156 L1.54736264,29.8645517 C1.54736264,25.4946324 5.08491629,21.9570788 9.45483551,21.9570788 L159.072546,21.9570788 C163.442465,21.9570788 166.980019,25.4946324 166.980019,29.8645517 L166.980019,133.910247 C166.980019,138.280166 163.442465,141.81772 159.072546,141.81772 L9.45483551,141.609629 Z" id="路径" fill="#FFFFFF"></path>
                    <path d="M159.072546,23.4137185 C162.610099,23.4137185 165.523379,26.326998 165.523379,29.8645517 L165.523379,133.910247 C165.523379,137.447801 162.610099,140.36108 159.072546,140.36108 L9.45483551,140.36108 C5.91728186,140.36108 3.00400238,137.447801 3.00400238,133.910247 L3.00400238,29.8645517 C3.00400238,26.326998 5.91728186,23.4137185 9.45483551,23.4137185 L159.072546,23.4137185 Z M159.072546,20.500439 L9.45483551,20.500439 C4.25255073,20.500439 0.0907229095,24.6622669 0.0907229065,29.8645517 L0.0907229065,133.910247 C0.0907229065,139.112532 4.25255073,143.27436 9.45483551,143.27436 L159.072546,143.27436 C164.274831,143.27436 168.436658,139.112532 168.436658,133.910247 L168.436658,29.8645517 C168.436658,24.6622669 164.274831,20.5004391 159.072546,20.500439 Z" id="形状" fill="#FFFFFF" fill-rule="nonzero"></path>
                    <path d="M159.072546,24.8703583 C161.777734,24.8703583 164.066739,27.1593636 164.066739,29.8645517 L164.066739,133.910247 C164.066739,136.615435 161.777734,138.904441 159.072546,138.904441 L9.45483551,138.904441 C6.74964743,138.904441 4.46064212,136.615435 4.46064212,133.910247 L4.46064212,29.8645517 C4.46064212,27.1593636 6.74964742,24.8703583 9.45483551,24.8703583 L159.072546,24.8703583 Z M159.072546,23.4137185 L9.45483551,23.4137185 C5.91728186,23.4137185 3.00400238,26.326998 3.00400238,29.8645517 L3.00400238,133.910247 C3.00400238,137.447801 5.91728186,140.36108 9.45483551,140.36108 L159.072546,140.36108 C162.610099,140.36108 165.523379,137.447801 165.523379,133.910247 L165.523379,29.8645517 C165.523379,26.326998 162.610099,23.4137185 159.072546,23.4137185 Z" id="形状" fill="#BDC5D3" fill-rule="nonzero"></path>
                    <path d="M146.378971,92.0838776 L112.043891,92.0838776 C111.003434,92.0838776 109.962977,91.0434206 109.962977,90.0029637 C109.962977,88.9625067 111.003434,87.9220498 112.043891,87.9220498 L146.378971,87.9220498 C147.419428,87.9220498 148.459885,88.9625067 148.459885,90.0029637 C148.459885,91.251512 147.627519,92.0838776 146.378971,92.0838776 Z M135.142036,103.320813 L101.015048,103.320813 C99.9745907,103.320813 98.9341337,102.280356 98.9341337,101.239899 C98.9341337,100.199442 99.9745907,99.1589849 101.015048,99.1589849 L135.142036,99.1589849 C136.182493,99.1589849 137.22295,100.199442 137.22295,101.239899 C137.22295,102.280356 136.390584,103.320813 135.142036,103.320813 Z M146.378971,115.598205 L112.668166,115.598205 C111.627709,115.598205 110.587252,114.557748 110.587252,113.517291 C110.587252,112.476834 111.627709,111.436377 112.668166,111.436377 L146.378971,111.436377 C147.419428,111.436377 148.459885,112.476834 148.459885,113.517291 C148.459885,114.557748 147.627519,115.598205 146.378971,115.598205 Z M49.616474,30.4888258 C70.8417959,30.4888258 88.1133814,47.7604113 88.1133814,68.9857332 C88.1133814,90.2110551 70.8417959,107.482641 49.616474,107.482641 C28.3911521,107.690732 11.1195666,90.4191465 11.1195666,69.1938246 C11.1195666,47.7604113 28.3911521,30.4888258 49.616474,30.4888258 Z M49.616474,27.7836377 C26.726421,27.7836377 8.20628716,46.3037715 8.20628716,69.1938246 C8.20628716,92.0838776 26.726421,110.604011 49.616474,110.604011 C72.506527,110.604011 91.0266608,92.0838776 91.0266608,69.1938246 C91.2347522,46.3037716 72.506527,27.7836377 49.616474,27.7836377 Z" id="形状" fill="#C3CCDB" fill-rule="nonzero"></path>
                    <path d="M49.616474,40.685304 C65.0152369,40.685304 77.292629,53.1707875 77.292629,68.361459 C77.292629,83.5521306 64.8071456,96.037614 49.616474,96.037614 C34.2177111,96.037614 21.940319,83.5521306 21.940319,68.361459 C21.940319,53.1707875 34.2177111,40.685304 49.616474,40.685304 Z M49.616474,37.7720245 C32.7610713,37.7720245 19.0270395,51.5060563 19.0270395,68.361459 C19.0270395,85.2168617 32.7610713,98.9508935 49.616474,98.9508935 C66.4718767,98.9508935 80.2059085,85.2168617 80.2059085,68.361459 C80.2059085,51.5060563 66.4718767,37.7720245 49.616474,37.7720245 Z" id="形状" fill="#C3CCDB" fill-rule="nonzero"></path>
                    <path d="M33.5934369,70.8585557 C32.5529799,70.8585557 31.512523,69.8180988 31.512523,68.7776418 C31.512523,58.789255 39.6280872,50.6736908 49.616474,50.6736908 C50.656931,50.6736908 51.6973879,51.7141477 51.6973879,52.7546047 C51.6973879,53.7950616 50.656931,54.8355186 49.616474,54.8355186 C42.1251839,54.8355186 35.6743508,61.0782603 35.6743508,68.7776418 C35.8824422,69.8180987 34.8419852,70.8585557 33.5934369,70.8585557 Z M73.9631668,100.407533 L88.9457469,115.390113 L87.4891072,116.846753 L72.506527,101.864173 L73.9631668,100.407533 Z" id="形状" fill="#C3CCDB" fill-rule="nonzero"></path>
                    <polygon id="路径" fill="#C3CCDB" points="92.0671178 110.187829 129.107385 147.228096 119.118999 157.008392 82.078731 119.968124 92.0671178 110.187829"></polygon>
                </g>
                <text font-family="PingFangSC-Semibold, PingFang SC" font-size="28" font-weight="500" letter-spacing="6.53333282" fill="#98AAC8">
                    <tspan x="30" y="197">暂无数据</tspan>
                </text>
            </g>
        </g>
    </g>
</svg>