<?xml version="1.0" encoding="UTF-8"?>
<svg width="16px" height="16px" viewBox="0 0 16 16" version="1.1" xmlns="http://www.w3.org/2000/svg" xmlns:xlink="http://www.w3.org/1999/xlink">
    <!-- Generator: Sketch 52.2 (67145) - http://www.bohemiancoding.com/sketch -->
    <title>通知</title>
    <desc>Created with Sketch.</desc>
    <g id="页面-1" stroke="none" stroke-width="1" fill="none" fill-rule="evenodd">
        <g id="评价信息告知" transform="translate(-1252.000000, -340.000000)">
            <g id="分组-12" transform="translate(1227.000000, 340.000000)">
                <g id="分组-10">
                    <g id="分组-5">
                        <g id="通知" transform="translate(25.000000, 0.000000)">
                            <circle id="椭圆形" fill="#259D9E" cx="8" cy="8" r="8"></circle>
                            <g transform="translate(3.000000, 4.000000)" fill="#FFFFFF">
                                <path d="M5.33622057,0.0554770756 C5.1639653,-0.0291821561 4.98019827,-0.0122428748 4.83209418,0.102032218 C4.2911772,0.519429988 2.86769517,1.77702602 2.6283767,1.98889715 L0.810669145,1.98889715 C0.3677943,1.98889715 0.00748451053,2.34920694 0.00748451053,2.79208178 L0.00748451053,5.6808798 C0.00748451053,6.12375465 0.3677943,6.48410161 0.810669145,6.48410161 L2.36890954,6.48410161 C2.68991326,6.77335812 4.2277943,8.15576208 4.82949195,8.63246592 C4.91567534,8.70069393 5.01446097,8.73530359 5.11629492,8.73530359 C5.18781908,8.73530359 5.26084263,8.718228 5.33209418,8.68376704 C5.58946716,8.55925651 5.79885998,8.20185874 5.79885998,7.88707559 L5.79885998,0.849467162 C5.79885998,0.537038414 5.5913259,0.180855019 5.33623296,0.0554770756 L5.33622057,0.0554770756 Z M5.26337051,7.88707559 C5.26337051,7.99579926 5.18144981,8.1319083 5.12510533,8.18335812 C4.44981413,7.6411772 2.68881041,6.05156134 2.67076828,6.03527881 C2.67064436,6.03515489 2.67052045,6.03508055 2.67039653,6.03498141 C2.62149938,5.98200743 2.55168525,5.94863693 2.47389095,5.94863693 L0.810669145,5.94863693 C0.663048327,5.94863693 0.542936803,5.8285254 0.542936803,5.68090458 L0.542936803,2.79209418 C0.542936803,2.64447336 0.663048327,2.52436183 0.810669145,2.52436183 L2.67643123,2.52436183 C2.73037175,2.52436183 2.78050805,2.50825279 2.82252788,2.48081784 C2.87037993,2.47209853 2.91492654,2.45042952 2.9513259,2.41816605 C2.96737299,2.40394052 4.53107807,1.01798017 5.12452292,0.552936803 C5.1805824,0.602998761 5.26335812,0.739814126 5.26335812,0.849467162 L5.26335812,7.88708798 L5.26337051,7.88707559 Z M8.3010285,4.39464684 C8.23208178,3.33374226 7.44245353,2.65090458 7.40888476,2.6223544 C7.29624535,2.52659232 7.12727385,2.54024783 7.03148699,2.65292441 C6.93571252,2.76556382 6.94938042,2.93453532 7.06204461,3.03030979 C7.06853779,3.03583643 7.71228005,3.59228005 7.76669145,4.42938042 C7.80285006,4.98545229 7.56802974,5.54664188 7.06879802,6.09737299 C6.96950434,6.20693928 6.9777943,6.37624535 7.08736059,6.47556382 C7.13653881,6.5202646 7.20063008,6.54500143 7.26708798,6.54493185 C7.34002478,6.54493185 7.41268897,6.5152912 7.46553903,6.45700124 C8.06583643,5.79477076 8.34693928,5.10089219 8.3010285,4.39464684 Z" id="形状" fill-rule="nonzero"></path>
                                <path d="M9.74643123,3.10174721 C9.33510533,1.94407683 8.56286245,1.24437423 8.53019827,1.21515489 C8.41997522,1.11660471 8.2507311,1.1260223 8.15215613,1.23625774 C8.05359356,1.3464684 8.06303594,1.51572491 8.17324659,1.61429988 C8.18022305,1.62054523 8.87579926,2.25070632 9.24187113,3.2810285 C9.45494424,3.88069393 9.51298637,4.49503098 9.41439901,5.10697646 C9.28971499,5.88094176 8.91232962,6.65855019 8.29273854,7.418228 C8.19928129,7.53281289 8.21640644,7.7014746 8.33100372,7.79493185 C8.37870283,7.83394419 8.43844082,7.85523321 8.50006196,7.85517968 C8.57773234,7.85517968 8.65478315,7.82153656 8.70770756,7.75665428 C9.38755886,6.9230855 9.80319703,6.06024783 9.94304833,5.19214374 C10.0560967,4.49040892 9.98995043,3.78711276 9.74643123,3.10174721 Z" id="路径"></path>
                            </g>
                        </g>
                    </g>
                </g>
            </g>
        </g>
    </g>
</svg>