<?xml version="1.0" encoding="UTF-8"?>
<svg width="16px" height="16px" viewBox="0 0 16 16" version="1.1" xmlns="http://www.w3.org/2000/svg" xmlns:xlink="http://www.w3.org/1999/xlink">
    <!-- Generator: Sketch 52.2 (67145) - http://www.bohemiancoding.com/sketch -->
    <title>查看</title>
    <desc>Created with Sketch.</desc>
    <g id="页面-1" stroke="none" stroke-width="1" fill="none" fill-rule="evenodd">
        <g id="画板" transform="translate(-793.000000, -794.000000)" fill-rule="nonzero">
            <g id="查看" transform="translate(793.000000, 794.000000)">
                <path d="M8,0 C3.55,0 0,3.55 0,8 C0,12.45 3.55,16 8,16 C12.45,16 16,12.45 16,8 C16,3.55 12.45,0 8,0 Z" id="形状" fill="#259D9E"></path>
                <g transform="translate(2.000000, 4.000000)" id="形状">
                    <path d="M0.0802607914,3.94700986 C2.16265737,1.7364658 3.86061151,0.374055725 6.03911871,0.374055725 C8.66614209,0.374055725 10.6220773,2.34685249 11.9996628,3.98916364 C10.6541142,5.39204134 8.69817896,7.5267086 6.03911871,7.5267086 C3.38005845,7.5267086 1.87432554,5.84055752 0.0802607914,3.95038216 L0.0802607914,3.94700986 Z" fill="#FFFFFF"></path>
                    <path d="M6.03911871,6.33459979 C7.35431655,6.33459979 8.42333633,5.26558001 8.42333633,3.95038216 C8.42333633,2.63518432 7.35431655,1.56616454 6.03911871,1.56616454 C4.72392086,1.56616454 3.65490108,2.63518432 3.65490108,3.95038216 C3.65490108,5.26558001 4.72392086,6.33459979 6.03911871,6.33459979 Z M6.03911871,2.55930752 C6.80631745,2.55930752 7.43019335,3.18318342 7.43019335,3.95038216 C7.43019335,4.7175809 6.80631745,5.3414568 6.03911871,5.3414568 C5.27191996,5.3414568 4.64804406,4.7175809 4.64804406,3.95038216 C4.64804406,3.18318342 5.27191996,2.55930752 6.03911871,2.55930752 Z" fill="#259D9E"></path>
                </g>
            </g>
        </g>
    </g>
</svg>