<?xml version="1.0" encoding="UTF-8"?>
<svg width="16px" height="16px" viewBox="0 0 16 16" version="1.1" xmlns="http://www.w3.org/2000/svg" xmlns:xlink="http://www.w3.org/1999/xlink">
    <!-- Generator: Sketch 52.2 (67145) - http://www.bohemiancoding.com/sketch -->
    <title>打印</title>
    <desc>Created with Sketch.</desc>
    <g id="页面-1" stroke="none" stroke-width="1" fill="none" fill-rule="evenodd">
        <g id="企业信息年报审核" transform="translate(-1245.000000, -413.000000)" fill-rule="nonzero">
            <g id="分组-5" transform="translate(1245.000000, 413.000000)">
                <g id="打印">
                    <path d="M8,0 C3.55,0 0,3.55 0,8 C0,12.45 3.55,16 8,16 C12.45,16 16,12.45 16,8 C16,3.55 12.45,0 8,0 Z" id="形状" fill="#259D9E"></path>
                    <g transform="translate(4.000000, 4.000000)" fill="#FFFFFF" id="形状">
                        <path d="M6.00355704,0.0145820419 L2.49305638,0.0145820419 C2.27231604,0.0145753353 2.0928865,0.192606198 2.09116581,0.41333983 L2.09116581,1.37868276 L6.40544761,1.37868276 L6.40544761,0.41333983 C6.40544761,0.194045424 6.22643176,0.0150295814 6.00355704,0.0150295814 L6.00355704,0.0145820419 Z M6.11678456,5.24632003 L2.37982886,5.24632003 C2.28740673,5.24596334 2.19863477,5.28236674 2.13307245,5.34750934 C2.06751012,5.41265193 2.03053733,5.50118826 2.03030042,5.59361076 L2.03030042,8.05910645 L6.46631299,8.05910645 L6.46631299,5.59316322 C6.46595759,5.50081839 6.42893256,5.41239702 6.36338311,5.34735116 C6.29783366,5.28230529 6.20912939,5.24596326 6.11678456,5.24632003 Z M7.97317884,1.88305989 L0.525224732,1.88305989 C0.238351845,1.88305989 0.00339355172,2.11578049 0.00339355172,2.40086322 L0.00339355172,5.55736005 C0.00339355172,5.84199524 0.238351845,6.07516338 0.525224732,6.07516338 L1.33437634,6.07516338 L1.33437634,5.76636105 C1.33733435,5.19136157 1.80482263,4.72707527 2.37982886,4.72806917 L6.11678456,4.72806917 C6.69179079,4.72707527 7.15927907,5.19136157 7.16223708,5.76636105 L7.16223708,6.07516338 L7.97138869,6.07516338 C8.25826157,6.07516338 8.49321987,5.84244278 8.49321987,5.55736005 L8.49321987,2.40086322 C8.49247923,2.11432157 8.25972102,1.8825649 7.97317884,1.88305989 Z M4.42239962,3.59266119 L1.56933463,3.59266119 C1.37798006,3.59291142 1.22238002,3.43851139 1.22114882,3.24716061 C1.22114882,3.05695628 1.37778768,2.90166004 1.56933463,2.90166004 L4.42239962,2.90166004 C4.61349903,2.90166004 4.77013789,3.05695628 4.77013789,3.24716061 C4.77013789,3.4369174 4.61349903,3.59221365 4.42239962,3.59221365 L4.42239962,3.59266119 Z"></path>
                    </g>
                </g>
            </g>
        </g>
    </g>
</svg>