<?xml version="1.0" encoding="UTF-8"?>
<svg width="16px" height="16px" viewBox="0 0 16 16" version="1.1" xmlns="http://www.w3.org/2000/svg" xmlns:xlink="http://www.w3.org/1999/xlink">
    <!-- Generator: Sketch 52.2 (67145) - http://www.bohemiancoding.com/sketch -->
    <title>退回</title>
    <desc>Created with Sketch.</desc>
    <g id="页面-1" stroke="none" stroke-width="1" fill="none" fill-rule="evenodd">
        <g id="企业信息年报审核" transform="translate(-1269.000000, -413.000000)">
            <g id="分组-5" transform="translate(1245.000000, 413.000000)">
                <g id="退回" transform="translate(24.000000, 0.000000)">
                    <path d="M0,8 C5.41083001e-16,12.418278 3.581722,16 8,16 C12.418278,16 16,12.418278 16,8 C16,3.581722 12.418278,2.705415e-16 8,0 C3.581722,-2.705415e-16 5.41083001e-16,3.581722 0,8 Z" id="路径" fill="#108EE9"></path>
                    <path d="M9.29714285,9.66857143 L9.29714285,11.3514286 L9.98857143,11.3514286 C11.5166339,11.3498573 12.7554232,10.1123458 12.7585714,8.58428571 C12.7688785,7.03803792 11.5262101,5.77492459 9.97999999,5.76 L6.52,5.76 L6.52857142,4.42714286 L3.71285714,6.50714287 L6.52857142,8.58285715 L6.54857142,7.45 L10.0085714,7.45 C10.3177735,7.41443337 10.6267732,7.51825661 10.8517669,7.73331192 C11.0767606,7.94836722 11.1944282,8.25236459 11.1728571,8.56285714 C11.187019,8.87432805 11.0638862,9.1763435 10.8359851,9.38912452 C10.608084,9.60190553 10.2983392,9.70404836 9.98857143,9.66857143 L9.29714285,9.66857143 Z" id="路径" fill="#FFFFFF" fill-rule="nonzero"></path>
                    <polygon id="路径" fill="#FFFFFF" fill-rule="nonzero" points="7.22142857 9.66857143 7.22142857 11.3514286 8.60571428 11.3514286 8.60571428 9.66857143"></polygon>
                    <polygon id="路径" fill="#FFFFFF" fill-rule="nonzero" points="5.84142856 9.66857143 5.84142856 11.3514286 6.53285715 11.3514286 6.53285715 9.66857143"></polygon>
                </g>
            </g>
        </g>
    </g>
</svg>