<?xml version="1.0" encoding="UTF-8"?>
<svg width="24px" height="24px" viewBox="0 0 24 24" version="1.1" xmlns="http://www.w3.org/2000/svg" xmlns:xlink="http://www.w3.org/1999/xlink">
    <!-- Generator: Sketch 52.2 (67145) - http://www.bohemiancoding.com/sketch -->
    <title>园区</title>
    <desc>Created with Sketch.</desc>
    <g id="页面-1" stroke="none" stroke-width="1" fill="none" fill-rule="evenodd">
        <g id="画板" transform="translate(-646.000000, -300.000000)">
            <g id="分组-8" transform="translate(610.000000, 300.000000)">
                <g id="园区" transform="translate(36.000000, 0.000000)">
                    <circle id="Oval-2" fill="#FFBE3C" cx="12" cy="12" r="12"></circle>
                    <path d="M16.6715343,10.1191783 L18.1580551,10.7770425 L18.1580551,13.2143739 L18.2699152,13.3379861 L19.1139268,14.2686378 L19.1139268,18.0997594 L19.980585,18.0997594 L19.980585,13.9479837 L19.8692396,13.8248862 L19.0251422,12.8947492 L19.0251422,10.2878263 L18.806569,10.1642998 L16.6714485,9.19238681 L12.2988694,10.5721945 L12.2988694,17.965939 L16.6714485,17.965939 L16.6714485,10.1191783 L16.6715343,10.1191783 Z M8.12547665,8.09677578 C7.8389639,8.17063431 7.56094359,8.24260563 7.28995743,8.31320443 L7.28995743,9.60997485 C7.56094359,9.55653251 7.8389639,9.50214655 8.12547665,9.44638808 L8.12547665,8.09677578 Z M15.9539657,10.3760962 L15.9539657,11.4525778 C15.7066555,11.5013879 15.4663793,11.5477961 15.2321938,11.5938612 L15.2321938,10.56293 C15.4663793,10.5024535 15.7066555,10.4402613 15.9539657,10.3760962 Z M13.4228743,13.8471896 L13.4228743,14.7615427 L12.8970291,14.7615427 L12.8970291,13.8806447 C13.0679073,13.869493 13.2434179,13.8583413 13.4228743,13.8471896 Z M14.5901993,13.7723875 L14.5901993,14.7615427 L13.9774567,14.7615427 L13.9774567,13.8114184 C14.1762141,13.7988084 14.3802044,13.7862842 14.5901993,13.7723875 Z M15.9539657,13.6859189 L15.9539657,14.7614569 L15.2321938,14.7614569 L15.2321938,13.7318982 L15.9539657,13.6859189 Z M13.4228743,12.4403605 L13.4228743,13.3556572 C13.2435036,13.3728995 13.0679073,13.3900559 12.8970291,13.4067835 L12.8970291,12.5249418 L13.4228743,12.4403605 Z M14.5901993,12.2521542 L14.5901993,13.2413095 C14.3801186,13.2617257 14.1762141,13.2822276 13.9774567,13.3012713 L13.9774567,12.3507181 C14.1762141,12.3190644 14.3802044,12.2856951 14.5901993,12.2521542 Z M15.9539657,12.0319512 L15.9539657,13.1084328 L15.2321938,13.1786027 L15.2321938,12.1481004 C15.4663793,12.110442 15.7066555,12.0719257 15.9539657,12.0319512 Z M13.4228743,11.0321589 L13.4228743,11.9478846 C13.2439325,11.9827122 13.0683363,12.0166819 12.8970291,12.0505659 L12.8970291,11.1682954 C13.0683363,11.1236886 13.2439325,11.0785671 13.4228743,11.0321589 Z M14.5901993,10.7296907 L14.5901993,11.7197895 C14.3801186,11.760193 14.1762141,11.8001675 13.9774567,11.8391984 L13.9774567,10.8881305 C14.1762141,10.8370043 14.3802044,10.7839909 14.5901993,10.7296907 Z M9.98532183,7.61450792 C9.64828333,7.70183426 9.32025197,7.78684448 9.00157087,7.86910967 L9.00157087,9.27499513 L9.98532183,9.0826713 L9.98532183,7.61450792 Z M6.53370103,12.3483162 C6.28827798,12.3636712 6.04937439,12.3785115 5.81621821,12.3938665 L5.81621821,13.5957618 L6.53327212,13.5957618 C6.53318634,13.1804899 6.53318634,12.7646175 6.53370103,12.3483162 Z M8.12547665,12.2470931 C7.8389639,12.2651932 7.56094359,12.2828643 7.28995743,12.3005354 L7.28995743,13.5958476 L8.12547665,13.5958476 L8.12547665,12.2470931 Z M9.98532183,12.1286278 C9.64828333,12.1499876 9.32025197,12.1709184 9.00157087,12.1913346 L9.00157087,13.5958476 L9.98532183,13.5958476 L9.98532183,12.1286278 Z M6.53370103,10.4295386 L5.81621821,10.5452588 L5.81621821,11.7476688 C6.04946017,11.7249365 6.28827798,11.7021184 6.53370103,11.6779278 L6.53370103,10.4295386 Z M8.12547665,10.1726207 C7.8389639,10.2191147 7.56094359,10.2641504 7.28995743,10.3073846 L7.28995743,11.6036404 C7.56094359,11.5776483 7.8389639,11.550198 8.12547665,11.5224046 L8.12547665,10.1726207 Z M9.98532183,9.87298326 C9.64828333,9.92728343 9.32025197,9.97986796 9.00157087,10.031852 L9.00157087,11.4368796 C9.32025197,11.4057407 9.64828333,11.3732292 9.98532183,11.3407177 L9.98532183,9.87298326 Z M6.53370103,8.50887376 C6.28870689,8.5725242 6.04988908,8.63437321 5.81621821,8.69519283 L5.81621821,9.89803168 C6.04988908,9.8524813 6.28870689,9.80555841 6.53370103,9.75769191 L6.53370103,8.50887376 Z M10.9639259,6 L13.797657,7.45932781 L14.0162302,7.58336896 L14.0162302,9.78419862 L13.1495721,9.78419862 L13.1495721,8.07215628 L10.9639259,6.95664377 L10.9639259,17.965939 L5,17.965939 L5,7.88163388 L10.9639259,6 Z" id="形状" fill="#FFFFFF" fill-rule="nonzero"></path>
                </g>
            </g>
        </g>
    </g>
</svg>