<?xml version="1.0" encoding="UTF-8"?>
<svg width="12px" height="13px" viewBox="0 0 12 13" version="1.1" xmlns="http://www.w3.org/2000/svg" xmlns:xlink="http://www.w3.org/1999/xlink">
    <!-- Generator: Sketch 52.2 (67145) - http://www.bohemiancoding.com/sketch -->
    <title>红</title>
    <desc>Created with Sketch.</desc>
    <g id="页面-1" stroke="none" stroke-width="1" fill="none" fill-rule="evenodd">
        <g id="区域洞察-企业画像" transform="translate(-564.000000, -150.000000)" fill="#F2637B">
            <g id="分组-3" transform="translate(230.000000, 117.000000)">
                <g id="search" transform="translate(26.000000, 25.000000)">
                    <g id="分组-2" transform="translate(216.000000, 4.000000)">
                        <g id="红" transform="translate(92.000000, 4.000000)">
                            <path d="M11.4465197,7.55613344 L11.7418804,7.26077268 C12.0794356,6.92321754 12.0794356,6.37469043 11.7418804,6.03713528 L5.83466538,0.129920214 L1.19328211,0.00333703385 L1.2354765,1.05819687 L5.11736069,1.18478005 L11.4465197,7.55613344 Z" id="路径"></path>
                            <path d="M10.55847,7.7690728 L4.65125496,1.86185774 L0.00987169862,1.73527456 L0.136454878,6.37665782 L6.04366994,12.2838729 C6.38122509,12.621428 6.9297522,12.621428 7.26730735,12.2838729 L10.5162756,9.0349046 C10.9382196,8.65515506 10.9382196,8.10662795 10.55847,7.7690728 Z M2.24617454,4.81546527 C1.73984182,4.81546527 1.31789789,4.39352134 1.31789789,3.88718862 C1.31789789,3.3808559 1.73984182,2.95891197 2.24617454,2.95891197 C2.75250726,2.95891197 3.1744512,3.3808559 3.1744512,3.88718862 C3.1322568,4.39352134 2.75250726,4.81546527 2.24617454,4.81546527 Z" id="形状" fill-rule="nonzero"></path>
                        </g>
                    </g>
                </g>
            </g>
        </g>
    </g>
</svg>