<?xml version="1.0" encoding="UTF-8"?>
<svg width="207px" height="91px" viewBox="0 0 207 91" version="1.1" xmlns="http://www.w3.org/2000/svg" xmlns:xlink="http://www.w3.org/1999/xlink">
    <!-- Generator: Sketch 52.2 (67145) - http://www.bohemiancoding.com/sketch -->
    <title>纹理</title>
    <desc>Created with Sketch.</desc>
    <g id="页面-1" stroke="none" stroke-width="1" fill="none" fill-rule="evenodd">
        <g id="区域洞察-区域概览" transform="translate(-232.000000, -118.000000)" fill="#FFFFFF">
            <g id="框" transform="translate(232.000000, 109.000000)">
                <g id="分组-4">
                    <g id="纹理" transform="translate(0.000000, 9.000000)">
                        <path d="M1.83822646e-13,74 C5.0097907,74 20.1123139,56.9527122 77.4536541,73.9527122 C115.681214,85.2860455 152.622741,82.3102849 188.278235,65.0254304 C198.048964,60.5347688 204.266125,60.0230608 206.929716,63.4903066 C206.977962,68.121471 206.977962,77.2913688 206.929716,91 L0,91 C5.42432385e-14,79.6666667 1.15517454e-13,74 1.83822646e-13,74 Z" id="路径-3" fill-opacity="0.165789176"></path>
                        <path d="M1.19003794e-12,79.8210529 C5.0097907,79.8210529 36.7628651,61.3711671 88.590722,73.3977842 C145.932062,90.3977842 200.494092,85.5233079 206.929716,79.8210529 C206.977962,84.4522173 206.977962,88.178533 206.929716,91 L4.54747351e-13,91 C8.76635882e-13,83.5473686 1.12173274e-12,79.8210529 1.19003794e-12,79.8210529 Z" id="路径-3" fill-opacity="0.165789176" transform="translate(103.482950, 80.163361) scale(-1, 1) translate(-103.482950, -80.163361) "></path>
                        <g id="工业的-70" opacity="0.22222" transform="translate(142.000000, 0.000000)" fill-rule="nonzero">
                            <path d="M3.87076582,34.8484848 C3.7039506,34.8484848 3.57883918,34.8082818 3.41202396,34.7278758 C3.16180112,34.5670637 2.9949859,34.2856425 3.03668971,34.0042213 L4.28780388,11.3699181 C4.32950769,10.9276848 4.66313813,10.6060606 5.12188,10.6060606 L11.0438204,10.6060606 C11.5025623,10.6060606 11.8361927,10.9276848 11.8778965,11.3699181 L12.8787879,29.6220916 C12.8787879,29.9437158 12.7119727,30.2251369 12.4617498,30.345746 L4.28780388,34.7680788 C4.16269246,34.8082818 3.99587724,34.8484848 3.87076582,34.8484848 Z M5.91425231,12.1739786 L4.78824955,32.5971154 L11.1689318,29.1396553 L10.2514481,12.1739786 L5.91425231,12.1739786 Z" id="形状"></path>
                            <path d="M34.8199928,51.5151515 L0.824141842,51.5151515 C0.370863829,51.5151515 0,51.1500188 0,50.7037455 L0,35.6927339 C0,35.4087418 0.164828368,35.1247497 0.412070921,35.0030388 L15.7411092,26.5238458 C15.9883517,26.4021349 16.3180085,26.4021349 16.565251,26.5238458 C16.8124936,26.686127 16.9773219,26.9295488 16.9773219,27.2135409 L16.9773219,31.4328522 L25.2187404,26.5644161 C25.4659829,26.4021349 25.7956397,26.4021349 26.0428822,26.5644161 C26.2901248,26.7266973 26.4549531,26.9701191 26.4549531,27.2541112 L26.4549531,31.4328522 L34.3667148,26.7672676 C34.6139574,26.6049864 34.9436141,26.6049864 35.1908567,26.7672676 C35.4380992,26.9295488 35.6029276,27.1729706 35.6029276,27.4569627 L35.6029276,50.7037455 C35.6441347,51.1500188 35.2732708,51.5151515 34.8199928,51.5151515 Z M1.64828368,49.8923395 L33.995851,49.8923395 L33.995851,28.8769233 L26.1252964,33.5425079 C25.8780538,33.7047891 25.5483971,33.7047891 25.3011546,33.5425079 C25.053912,33.3802267 24.8890836,33.1368049 24.8890836,32.8528128 L24.8890836,28.6740717 L16.6476652,33.5425079 C16.4004227,33.7047891 16.0707659,33.7047891 15.8235234,33.5425079 C15.5762808,33.3802267 15.4114524,33.1368049 15.4114524,32.8528128 L15.4114524,28.6335014 L1.64828368,36.1795775 L1.64828368,49.8923395 Z M8.65348934,10.4985767 C8.20021133,10.4985767 7.8293475,10.1334439 7.8293475,9.68717062 L7.8293475,7.00953072 C7.8293475,6.644398 8.07659005,6.36040589 8.40624679,6.23869499 L13.5983404,4.61588293 C14.0516184,4.49417202 14.5048964,4.73759383 14.6285177,5.14329685 C14.752139,5.58957016 14.5048964,6.03584348 14.0928255,6.15755438 L9.47763118,7.57751494 L9.47763118,9.64660032 C9.47763118,10.1334439 9.10676736,10.4985767 8.65348934,10.4985767 Z M10.755051,3.19592237 C10.3841872,3.19592237 10.0957376,2.99307086 9.97211629,2.62793815 C9.84849501,2.18166483 10.0957376,1.73539152 10.5078085,1.61368061 L15.6999021,0.0314388507 C16.1531801,-0.0902720539 16.6064581,0.153149755 16.7300794,0.558852771 C16.8537007,1.00512609 16.6064581,1.4513994 16.1943872,1.57311031 L11.0022936,3.15535207 C10.9198794,3.19592237 10.8374652,3.19592237 10.755051,3.19592237 Z" id="形状"></path>
                            <path d="M29.5949335,43.0044346 L26.7823952,43.0044346 C26.5342301,43.0044346 26.3687867,42.841833 26.3687867,42.5979305 L26.3687867,38.8987435 C26.3687867,38.6548411 26.5342301,38.4922395 26.7823952,38.4922395 L29.5949335,38.4922395 C29.8430986,38.4922395 30.0085421,38.6548411 30.0085421,38.8987435 L30.0085421,42.5979305 C30.0085421,42.8011826 29.8017378,43.0044346 29.5949335,43.0044346 Z M27.1960038,42.1914265 L29.1813249,42.1914265 L29.1813249,39.3052476 L27.1960038,39.3052476 L27.1960038,42.1914265 Z M44.3193985,15.1182557 L39.8110651,15.1182557 C39.5628999,15.1182557 39.3974565,14.9556541 39.3974565,14.7117517 L39.3974565,11.0125647 C39.3974565,10.7686622 39.5628999,10.6060606 39.8110651,10.6060606 L44.2780376,10.6060606 C44.5262027,10.6060606 44.6916462,10.7686622 44.6916462,11.0125647 L44.6916462,14.7117517 C44.733007,14.9556541 44.5262027,15.1182557 44.3193985,15.1182557 Z M40.2246737,14.3052476 L43.864429,14.3052476 L43.864429,11.4190687 L40.2246737,11.4190687 L40.2246737,14.3052476 Z M44.3193985,24.7117517 L39.8110651,24.7117517 C39.5628999,24.7117517 39.3974565,24.54915 39.3974565,24.3052476 L39.3974565,20.6060606 C39.3974565,20.3621582 39.5628999,20.1995565 39.8110651,20.1995565 L44.2780376,20.1995565 C44.5262027,20.1995565 44.6916462,20.3621582 44.6916462,20.6060606 L44.6916462,24.3052476 C44.733007,24.54915 44.5262027,24.7117517 44.3193985,24.7117517 Z M40.2246737,23.8987435 L43.864429,23.8987435 L43.864429,21.0125647 L40.2246737,21.0125647 L40.2246737,23.8987435 Z M44.3193985,34.345898 L39.8110651,34.345898 C39.5628999,34.345898 39.3974565,34.1832964 39.3974565,33.9393939 L39.3974565,30.2402069 C39.3974565,29.9963045 39.5628999,29.8337029 39.8110651,29.8337029 L44.2780376,29.8337029 C44.5262027,29.8337029 44.6916462,29.9963045 44.6916462,30.2402069 L44.6916462,33.9393939 C44.733007,34.142646 44.5262027,34.345898 44.3193985,34.345898 Z M40.2246737,33.5328899 L43.864429,33.5328899 L43.864429,30.646711 L40.2246737,30.646711 L40.2246737,33.5328899 Z M44.3193985,43.9393939 L39.8110651,43.9393939 C39.5628999,43.9393939 39.3974565,43.7767923 39.3974565,43.5328899 L39.3974565,39.8337029 C39.3974565,39.5898004 39.5628999,39.4271988 39.8110651,39.4271988 L44.2780376,39.4271988 C44.5262027,39.4271988 44.6916462,39.5898004 44.6916462,39.8337029 L44.6916462,43.5328899 C44.733007,43.7361419 44.5262027,43.9393939 44.3193985,43.9393939 Z M40.2246737,43.1263858 L43.864429,43.1263858 L43.864429,40.2402069 L40.2246737,40.2402069 L40.2246737,43.1263858 Z M19.4201628,43.0044346 L16.6076245,43.0044346 C16.3594594,43.0044346 16.1940159,42.841833 16.1940159,42.5979305 L16.1940159,38.8987435 C16.1940159,38.6548411 16.3594594,38.4922395 16.6076245,38.4922395 L19.4201628,38.4922395 C19.6683279,38.4922395 19.8337713,38.6548411 19.8337713,38.8987435 L19.8337713,42.5979305 C19.8337713,42.8011826 19.6683279,43.0044346 19.4201628,43.0044346 Z M17.0625939,42.1914265 L19.047915,42.1914265 L19.047915,39.3052476 L17.0625939,39.3052476 L17.0625939,42.1914265 Z M9.28675288,43.0044346 L6.47421463,43.0044346 C6.22604949,43.0044346 6.06060606,42.841833 6.06060606,42.5979305 L6.06060606,38.8987435 C6.06060606,38.6548411 6.22604949,38.4922395 6.47421463,38.4922395 L9.28675288,38.4922395 C9.53491802,38.4922395 9.70036145,38.6548411 9.70036145,38.8987435 L9.70036145,42.5979305 C9.70036145,42.8011826 9.53491802,43.0044346 9.28675288,43.0044346 Z M6.88782319,42.1914265 L8.87314431,42.1914265 L8.87314431,39.3052476 L6.88782319,39.3052476 L6.88782319,42.1914265 Z" id="形状"></path>
                            <path d="M49.1944764,51.5151515 L34.8964327,51.5151515 C34.4533947,51.5151515 34.0909091,51.150774 34.0909091,50.7054238 L34.0909091,7.62790953 C34.0909091,7.18255929 34.4533947,6.81818182 34.8964327,6.81818182 L49.1944764,6.81818182 C49.6375144,6.81818182 50,7.18255929 50,7.62790953 L50,50.7054238 C50,51.150774 49.6375144,51.5151515 49.1944764,51.5151515 Z M35.7019563,49.8956961 L48.3889528,49.8956961 L48.3889528,8.43763724 L35.7019563,8.43763724 L35.7019563,49.8956961 Z" id="形状"></path>
                        </g>
                    </g>
                </g>
            </g>
        </g>
    </g>
</svg>