<?xml version="1.0" encoding="UTF-8"?>
<svg width="16px" height="16px" viewBox="0 0 16 16" version="1.1" xmlns="http://www.w3.org/2000/svg" xmlns:xlink="http://www.w3.org/1999/xlink">
    <!-- Generator: Sketch 52.2 (67145) - http://www.bohemiancoding.com/sketch -->
    <title>调档</title>
    <desc>Created with Sketch.</desc>
    <g id="页面-1" stroke="none" stroke-width="1" fill="none" fill-rule="evenodd">
        <g id="新增年度评价-2" transform="translate(-1253.000000, -357.000000)">
            <g id="Group-31" transform="translate(275.000000, 295.000000)">
                <g id="分组-5" transform="translate(977.000000, 61.000000)">
                    <g id="调档">
                        <rect id="Rectangle-44" x="0" y="0" width="18" height="18"></rect>
                        <g id="edit" transform="translate(1.125000, 1.125000)" fill="#0C7FC6" fill-rule="nonzero">
                            <path d="M15.1171875,14.484375 L0.6328125,14.484375 C0.283007813,14.484375 0,14.7673828 0,15.1171875 C0,15.4669922 0.283007813,15.75 0.6328125,15.75 L15.1171875,15.75 C15.4669922,15.75 15.75,15.4669922 15.75,15.1171875 C15.75,14.7673828 15.4669922,14.484375 15.1171875,14.484375 Z M4.078125,12.4101562 L8.21777344,10.6576172 C8.28457031,10.6294922 8.34433594,10.5890625 8.39707031,10.5380859 L15.3791016,3.55605469 C15.8730469,3.06210938 15.8765625,2.25703125 15.3826172,1.76308594 L13.9886719,0.369140625 C13.4947266,-0.124804687 12.6896484,-0.121289062 12.1957031,0.37265625 L5.21367188,7.3546875 C5.16269531,7.40566406 5.12226563,7.4671875 5.09414063,7.53398438 L3.33984375,11.671875 C3.24140625,11.9039063 3.30996094,12.1376953 3.459375,12.2888672 C3.60878906,12.4400391 3.84433594,12.5085937 4.078125,12.4101562 Z M13.0904297,1.26738281 L13.0939453,1.26386719 L14.4861328,2.65605469 L14.4826172,2.65957031 L13.3927734,3.74941406 L12.0005859,2.35722656 L13.0904297,1.26738281 Z M6.20507813,8.15273437 L11.1058594,3.25195313 L12.4980469,4.64414063 L7.59726563,9.54492188 L5.18203125,10.5679688 L6.20507813,8.15273437 Z" id="Shape"></path>
                        </g>
                    </g>
                </g>
            </g>
        </g>
    </g>
</svg>