<?xml version="1.0" encoding="UTF-8"?>
<svg width="18px" height="15px" viewBox="0 0 18 15" version="1.1" xmlns="http://www.w3.org/2000/svg" xmlns:xlink="http://www.w3.org/1999/xlink">
    <!-- Generator: Sketch 52.2 (67145) - http://www.bohemiancoding.com/sketch -->
    <title>区域概览</title>
    <desc>Created with Sketch.</desc>
    <g id="页面-1" stroke="none" stroke-width="1" fill="none" fill-rule="evenodd">
        <g id="区域洞察-区域概览" transform="translate(-19.000000, -94.000000)" fill="#0C7FC6" fill-rule="nonzero">
            <g id="分组-18">
                <g id="分组-8" transform="translate(0.000000, 82.000000)">
                    <g id="蓝" transform="translate(19.000000, 12.000000)">
                        <g id="区域概览">
                            <path d="M17.402497,1.60914111 C17.2322256,1.8311871 16.9836779,1.79967847 16.8726641,1.56009915 C16.740027,1.27432062 16.452818,1.28007947 16.2259852,1.28266546 C15.9420223,1.28600339 15.822572,1.1452416 15.6961706,0.963562603 C15.5488797,0.751108585 15.3968019,0.541552334 15.2487774,0.329043296 C15.1134993,0.135516466 14.9428062,0.0150023642 14.6808334,0.0578819821 C14.6306726,0.0658966925 14.5748998,0.0578819821 14.5511491,0 L14.3598965,0 C14.2678832,0.11798314 14.1282952,0.101917039 13.9974555,0.128272048 C13.8219755,0.16341206 13.5819193,0.322477469 13.7035522,0.443688501 C13.9083767,0.647742663 13.7772435,0.771613039 13.717179,0.934328167 C13.6765186,1.04427826 13.6142533,1.15487026 13.608311,1.2669845 C13.5910895,1.59454223 13.4808276,1.70594121 13.1407985,1.68211716 C13.0807707,1.67810063 13.0133701,1.63415728 12.9822283,1.70742677 C12.8901966,1.92541956 12.7675001,2.13675482 12.7714982,2.38086419 C12.7732589,2.49952592 12.8374133,2.53906761 12.9547545,2.47676561 C13.1298677,2.38301001 13.3320695,2.4402134 13.5254496,2.37057528 C13.7395175,2.29330761 13.8919621,2.5031573 14.0117426,2.66145242 C14.0802253,2.75157664 14.0011602,2.77941722 13.9131635,2.78090278 C13.5061006,2.7882389 13.2033572,2.9553557 13.0052637,3.29822758 C12.9560933,3.38327155 12.8741305,3.45476203 12.7469222,3.44364781 C12.690159,3.43856755 12.6058487,3.41767795 12.5835285,3.49346006 C12.4893878,3.81555238 12.2783643,3.74307152 12.0518616,3.64625309 C11.961719,3.60744501 11.8587933,3.59352473 11.7928049,3.68078787 C11.7338225,3.75844069 11.6920983,3.85366352 11.7415438,3.95266445 C11.780737,4.03099587 11.8316496,4.10356843 11.8803982,4.18419238 C11.7866425,4.2405888 11.6661101,4.2329409 11.6089067,4.3300161 C11.4154349,4.65905939 11.0969923,4.73084332 10.734698,4.70914675 C10.552909,4.69852771 10.3601341,4.69493301 10.2197575,4.80996337 C9.88609243,5.08396743 9.54529301,4.97775876 9.19979846,4.85832673 C8.92273157,4.76233361 8.70875531,4.51389593 8.36071147,4.58459778 C7.99097105,4.65973798 7.63703997,4.51763735 7.27654306,4.46769672 C7.2223108,4.46004881 7.18456646,4.4530795 7.16475894,4.39000721 C7.06885752,4.08561328 6.88189652,3.85072907 6.60928632,3.6554966 C6.43384302,3.52975551 6.27956443,3.4334506 6.04906356,3.43669684 C5.65702134,3.44258407 5.61641592,3.3656832 5.79147407,3.02567241 C5.94652295,2.72489151 5.78342268,2.30576067 5.45333398,2.17198653 C5.30120121,2.11038147 5.20746394,1.99094944 5.20119156,1.85462601 C5.18952713,1.5985771 4.92232732,1.66632616 4.89743954,1.70366701 C4.79233129,1.86089839 4.62268352,1.8711873 4.47869384,1.94190749 C4.43286144,1.96455776 4.40569945,2.03604824 4.38600197,2.09066565 C4.2539885,2.44745781 4.24999032,2.45815021 3.88184551,2.27458216 C3.70521009,2.18660375 3.6109593,2.18924475 3.52818953,2.37794808 C3.39039887,2.6907969 3.22513444,2.98026183 2.76752565,2.84175589 C2.68583796,2.81679475 2.52974368,2.82631336 2.55248565,2.94216903 C2.61687844,3.27411009 2.57992274,3.54450111 2.35094411,3.83682713 C2.24209444,3.97610336 2.18380897,4.03182118 2.01639872,4.0500331 C1.67818528,4.08634689 1.31620281,4.05923993 1.04328083,4.31824162 C0.993083429,4.36590806 0.910588767,4.36367054 0.869873304,4.31758137 C0.681976946,4.1054208 0.470513304,4.26037798 0.289879704,4.30138689 C0.10963125,4.3424875 0.0762885875,4.5455146 0.00997006812,4.70003162 C-0.0204014662,4.77036666 0.0249907726,4.78907377 0.0608827368,4.81363143 C0.359114331,5.01807073 0.377858116,5.26946121 0.0931616622,5.53324972 C0.292429005,5.54344693 0.418555238,5.69957789 0.399811453,5.81497504 C0.353208755,6.10038677 0.573879226,6.18607264 0.737969877,6.29897552 C0.861124982,6.38323085 0.894467644,6.46893507 0.940941961,6.59718878 C1.00511467,6.77450278 1.05896178,6.91887761 1.03884247,7.12483916 C1.00991982,7.42198868 1.06266652,7.4266838 0.836237196,7.55750515 C0.827397173,7.56260375 0.82229857,7.57248917 0.815347596,7.58015541 C0.750514641,7.65417686 0.821509937,8.1767103 0.92555445,8.20190987 C1.24359357,8.27886577 1.28322695,8.81227501 1.74483392,8.64128841 C1.8060355,8.61810627 1.80682413,8.7071851 1.83937816,8.74050942 C2.163708,9.07542161 2.4780057,9.41906379 2.83820916,9.72101846 C3.07349685,9.91735136 3.36729009,9.95700308 3.65559958,9.95405029 C3.8755181,9.95175776 4.00113081,9.99876394 4.03003512,10.2111629 C4.22502917,10.1797093 4.2364185,9.90852967 4.45950989,9.91548064 C4.72008885,9.92362374 5.10039328,10.2346202 5.16042108,10.5116687 C5.18530886,10.6266807 5.25280116,10.6178774 5.33703815,10.627396 C5.69795689,10.668515 5.93577554,10.4179315 6.2124206,10.2775915 C6.42749728,10.1687235 6.60664532,10.1364812 6.80780171,10.2588661 C6.92136484,10.3278439 7.01081047,10.3919616 7.1167257,10.2339783 C7.2104813,10.0940051 7.32628195,10.0771504 7.3540675,10.2845792 C7.36475989,10.3644145 7.42152312,10.4040295 7.46508133,10.4589587 C7.61649883,10.6505598 7.5762052,11.0935514 7.38673157,11.2408423 C7.16686807,11.4115905 7.02065921,11.6035034 7.11083846,11.9025236 C7.35632336,11.7984974 7.57756238,11.748245 7.57582005,12.1242028 C7.57582005,12.1648816 7.60809898,12.2644877 7.71430764,12.2597009 C7.77589437,12.2567848 7.80951213,12.2875965 7.78431256,12.3550521 C7.73923211,12.4744842 7.54651225,12.6191157 7.85020926,12.6821697 C7.99641812,12.7125963 8.05536384,12.9419967 8.25835426,12.8544034 C8.33789613,12.8199787 8.40085838,12.8214459 8.43394428,12.9053161 C8.46578304,12.9878108 8.51775944,13.0686915 8.61164343,13.0317174 C8.72373933,12.9878108 8.60320689,12.8858937 8.63651287,12.803124 C8.67350526,12.7122111 8.55766793,12.5532191 8.69842972,12.5136224 C8.8885636,12.460839 9.11325059,12.4139795 9.29414096,12.4616459 C9.41436161,12.4935214 9.51330752,12.4926411 9.60161606,12.4717331 C9.21247161,11.8794882 8.98418991,11.1791272 8.98418991,10.4260012 C8.98418991,8.31042942 10.760888,6.59577657 12.9530855,6.59577657 C13.6422039,6.59577657 14.2900566,6.76582782 14.8547361,7.06407776 C15.0325086,6.81820771 15.1954805,6.55843573 15.5325385,6.46534037 C15.629687,6.43827009 15.6307141,6.37453755 15.6307141,6.30264358 C15.6307141,6.23529801 15.5823324,6.22066245 15.5259726,6.22093755 C15.2148662,6.223872 14.8671708,6.07443525 14.6506452,6.44336869 C14.5714335,6.57820657 14.4322856,6.51300681 14.4370358,6.39975546 C14.4465177,6.15317015 14.3079751,6.14288124 14.1200787,6.1576085 C14.0128063,6.16564155 13.9291746,6.12903432 13.9185188,6.01539783 C13.9134386,5.96116556 13.8904032,5.88573192 13.9738515,5.86377858 C14.4161828,5.74876657 14.590269,5.38373961 14.8048871,5.0602901 C14.8759374,4.95327446 14.9774143,4.91807943 15.0693542,4.96466379 C15.1475206,5.00418713 15.2203499,5.09509999 15.1456132,5.21299143 C15.0990655,5.28704955 15.0649892,5.37647685 15.0566444,5.46179592 C15.0459887,5.56838973 15.0317016,5.75010541 15.081147,5.77178364 C15.2067414,5.82711632 15.2598916,5.69117803 15.3215333,5.59848616 C15.3822947,5.50583097 15.4599476,5.42038352 15.569916,5.37420265 C15.9935219,5.19621005 16.1942014,4.82755171 16.41854,4.4802965 C16.4767704,4.39017227 16.5034922,4.29779219 16.6386786,4.41724256 C16.7735348,4.53671126 16.9699961,4.37771921 16.9471807,4.33958973 C16.840917,4.16414644 17.008474,4.14608124 17.0791025,4.09999207 C17.2403137,3.99517727 17.3142801,3.82736353 17.5250835,3.73212236 C17.8375839,3.59141559 17.6046071,3.27590744 17.5239831,3.04513146 C17.4418369,2.81094419 17.4810118,2.66372661 17.7627921,2.66187424 C17.8804451,2.66150744 17.9251038,2.59559241 17.9889464,2.53587639 L17.9889464,1.14683721 C17.7739614,1.27833715 17.5622593,1.40103374 17.402497,1.60914111 Z M13.7868722,7.12803038 L13.7868722,10.0983884 L16.7883538,10.0983884 C16.7883538,10.0983884 16.7883538,7.12803038 13.7868722,7.12803038 Z M13.1863008,7.7219626 L13.0547458,7.7219626 C12.9958551,7.7143147 12.9372395,7.70441094 12.8759462,7.70441094 C12.8147813,7.70441094 12.7579264,7.71902816 12.6975318,7.7219626 L12.5860411,7.7219626 L12.5860411,7.73333359 C10.8963678,7.88102801 9.56658609,9.2688384 9.56658609,10.9791813 C9.56658609,12.7876631 11.0482988,14.2539149 12.8759279,14.2539149 C14.59733,14.2539149 15.9954293,12.948911 16.1541646,11.2862529 L16.187874,11.2862529 L16.187874,10.6923023 L13.1863008,10.6923023 L13.1863008,7.7219626 Z M15.5261744,11.2862529 C15.370777,12.6051404 14.2506983,13.6325456 12.8763864,13.6325456 C11.3953523,13.6325456 10.1949797,12.4447179 10.1949797,10.9791813 C10.1949797,9.61255393 11.2436046,8.50014147 12.5860411,8.35508805 L12.5860411,11.2861062 L15.5261744,11.2861062 L15.5261744,11.2862529 Z" id="形状"></path>
                        </g>
                    </g>
                </g>
            </g>
        </g>
    </g>
</svg>