<?xml version="1.0" encoding="UTF-8"?>
<svg width="16px" height="16px" viewBox="0 0 16 16" version="1.1" xmlns="http://www.w3.org/2000/svg" xmlns:xlink="http://www.w3.org/1999/xlink">
    <!-- Generator: Sketch 52.2 (67145) - http://www.bohemiancoding.com/sketch -->
    <title>企业综合查询</title>
    <desc>Created with Sketch.</desc>
    <g id="页面-1" stroke="none" stroke-width="1" fill="none" fill-rule="evenodd">
        <g id="区域洞察-区域概览" transform="translate(-19.000000, -137.000000)" fill="#FFFFFF" fill-rule="nonzero">
            <g id="分组-18">
                <g id="分组-8" transform="translate(0.000000, 82.000000)">
                    <g id="白" transform="translate(19.000000, 12.000000)">
                        <g id="企业综合查询" transform="translate(0.000000, 43.000000)">
                            <path d="M15.2557995,15.9822661 L9.44406635,15.9822661 C9.03724503,15.9822661 8.71759971,15.6626208 8.71759971,15.2557995 L8.71759971,9.44406635 C8.71759971,9.03724503 9.03724503,8.71759971 9.44406635,8.71759971 L15.2557995,8.71759971 C15.6626208,8.71759971 15.9822661,9.03724503 15.9822661,9.44406635 L15.9822661,15.2557995 C15.9822661,15.6626208 15.6626208,15.9822661 15.2557995,15.9822661 Z M14.7036848,6.69802244 L12.9456356,4.92544383 C12.5242849,5.20150116 12.0302876,5.37585315 11.4781729,5.37585315 C10.039769,5.37585315 8.86289304,4.19897719 8.86289304,2.76057324 C8.86289304,1.32216929 10.039769,0.145293328 11.4781729,0.145293328 C12.9165769,0.145293328 14.0934529,1.32216929 14.0934529,2.76057324 C14.0934529,3.18192389 13.9917475,3.58874521 13.8028662,3.95197853 L15.6335621,5.78267447 C15.8950901,6.04420246 15.8950901,6.45102378 15.6335621,6.71255177 C15.3720342,6.95955043 14.9652128,6.95955043 14.7036848,6.69802244 Z M11.4781729,1.45293328 C10.7517063,1.45293328 10.170533,2.0341066 10.170533,2.76057324 C10.170533,3.48703988 10.7517063,4.0682132 11.4781729,4.0682132 C12.2046396,4.0682132 12.7858129,3.48703988 12.7858129,2.76057324 C12.7858129,2.0341066 12.2046396,1.45293328 11.4781729,1.45293328 Z M6.53819978,15.9822661 L0.726466642,15.9822661 C0.319645323,15.9822661 -2.50783185e-10,15.6626208 0,15.2557995 L0,9.44406635 C0,9.03724503 0.319645323,8.71759971 0.726466642,8.71759971 L6.53819978,8.71759971 C6.9450211,8.71759971 7.26466642,9.03724503 7.26466642,9.44406635 L7.26466642,15.2557995 C7.26466642,15.6626208 6.9450211,15.9822661 6.53819978,15.9822661 Z M6.53819978,7.26466642 L0.726466642,7.26466642 C0.319645323,7.26466642 -2.50783185e-10,6.9450211 0,6.53819978 L0,0.726466642 C0,0.319645323 0.319645323,-2.50783185e-10 0.726466642,0 L6.53819978,0 C6.9450211,0 7.26466642,0.319645323 7.26466642,0.726466642 L7.26466642,6.53819978 C7.26466642,6.9450211 6.9450211,7.26466642 6.53819978,7.26466642 Z" id="形状"></path>
                        </g>
                    </g>
                </g>
            </g>
        </g>
    </g>
</svg>