<?xml version="1.0" encoding="UTF-8"?>
<svg width="16px" height="17px" viewBox="0 0 16 17" version="1.1" xmlns="http://www.w3.org/2000/svg" xmlns:xlink="http://www.w3.org/1999/xlink">
    <!-- Generator: Sketch 52.2 (67145) - http://www.bohemiancoding.com/sketch -->
    <title>数据填报</title>
    <desc>Created with Sketch.</desc>
    <g id="页面-1" stroke="none" stroke-width="1" fill="none" fill-rule="evenodd">
        <g id="任务管理" transform="translate(-20.000000, -137.000000)" fill="#FFFFFF" fill-rule="nonzero">
            <g id="白" transform="translate(20.000000, 91.000000)">
                <g id="数据填报" transform="translate(0.000000, 46.000000)">
                    <path d="M2.79950434,12.4407435 L2.79950434,12.1362082 C2.79950434,11.9839405 2.951772,11.8316729 3.10403965,11.8316729 L7.41828996,11.8316729 L7.57055762,11.6794052 L9.90532838,9.39539033 L3.10403965,9.39539033 C2.951772,9.39539033 2.79950434,9.24312268 2.79950434,9.09085502 L2.79950434,8.7863197 C2.79950434,8.63405204 2.951772,8.48178439 3.10403965,8.48178439 L10.8696902,8.48178439 L13.8642875,5.537943 L13.8642875,0.563866171 C13.8642875,0.259330855 13.6105081,0.00555142503 13.3059727,0.00555142503 L4.62671623,0.00555142503 L0.667757125,0.056307311 C0.261710037,0.00555142503 0.00793060719,0.360842627 0.00793060719,0.665377943 L0.00793060719,15.6383643 C0.00793060719,15.9428996 0.312465923,16.2981908 0.617001239,16.2474349 L5.28654275,16.2474349 L6.25090458,13.3543494 L6.25090458,13.3035936 C6.25090458,13.2020818 6.35241636,12.7960347 6.35241636,12.6945229 L3.05328377,12.6945229 C2.951772,12.7452788 2.79950434,12.5930112 2.79950434,12.4407435 Z M2.79950434,5.03038414 C2.79950434,4.87811648 2.951772,4.72584882 3.10403965,4.72584882 L11.1234696,4.72584882 C11.2757373,4.72584882 11.428005,4.87811648 11.428005,5.03038414 L11.428005,5.33491945 C11.428005,5.48718711 11.2757373,5.63945477 11.1234696,5.63945477 L3.10403965,5.63945477 C2.951772,5.63945477 2.79950434,5.48718711 2.79950434,5.33491945 L2.79950434,5.03038414 Z M15.8945229,8.63405204 L14.4733581,7.26364312 C14.2703346,7.06061958 13.9150434,7.11137546 13.6612639,7.31439901 L12.8999257,8.0757373 L15.0316729,10.1567286 L15.7930112,9.39539033 C16.0467906,9.19236679 16.0467906,8.83707559 15.8945229,8.63405204 Z M8.43340768,12.4407435 L7.46904585,13.3035936 C7.41828996,13.3035936 7.36753408,13.4051053 7.36753408,13.5066171 L7.36753408,13.557373 L6.50468401,16.1459232 C6.45392813,16.2474349 6.50468401,16.2981908 6.5554399,16.3489467 C6.60619579,16.3997026 6.70770756,16.3997026 6.75846344,16.3997026 L9.39776952,15.5876084 L9.4485254,15.5876084 C9.55003717,15.5876084 9.60079306,15.4860967 9.65154895,15.4860967 L14.7271375,10.5627757 L12.5953903,8.48178439 L8.43340768,12.4407435 Z"></path>
                </g>
            </g>
        </g>
    </g>
</svg>