<?xml version="1.0" encoding="UTF-8"?>
<svg width="16px" height="19px" viewBox="0 0 16 19" version="1.1" xmlns="http://www.w3.org/2000/svg" xmlns:xlink="http://www.w3.org/1999/xlink">
    <!-- Generator: Sketch 52.2 (67145) - http://www.bohemiancoding.com/sketch -->
    <title>数据审核</title>
    <desc>Created with Sketch.</desc>
    <g id="页面-1" stroke="none" stroke-width="1" fill="none" fill-rule="evenodd">
        <g id="任务管理" transform="translate(-20.000000, -302.000000)" fill="#FFFFFF" fill-rule="nonzero">
            <g id="白" transform="translate(20.000000, 91.000000)">
                <g id="数据审核" transform="translate(0.000000, 211.000000)">
                    <path d="M15.6357366,17.1739651 L0.378480966,17.1739651 C0.171437248,17.1739651 0.00704632346,17.3943378 0.00704632346,17.6689151 L0.00704632346,18.1647537 C0.00704632346,18.4402195 0.171437248,18.6588151 0.378480966,18.6588151 L15.5939724,18.6588151 C15.8010162,18.6588151 15.9662957,18.4375537 15.9662957,18.1647537 L15.9662957,17.6689151 C15.9662957,17.3943378 15.8010162,17.1739651 15.6357366,17.1739651 Z M15.9911765,15.9059334 L15.9911765,14.386428 C15.9911765,13.7519679 15.8490005,13.6160122 15.1825508,13.6160122 L12.798438,13.6160122 C12.6118321,13.5955744 12.4163402,13.4791678 12.2492834,13.3458779 C12.1508007,13.2739272 12.0605116,13.1913857 11.9800377,13.0997358 C11.9345453,13.0526784 11.8906818,13.004073 11.848525,12.9540054 C11.7747269,12.8682541 11.7021506,12.7814588 11.6308181,12.6936457 C10.2117245,11.0292986 11.1323137,9.87767351 12.1382085,8.30574076 C12.3283688,8.07825924 12.5185291,7.85166635 12.6624823,7.57886626 C13.1029284,6.83724266 13.3333055,5.98976216 13.328932,5.12721986 C13.328932,2.31391344 10.9483736,-1.70530257e-13 7.95023841,-1.70530257e-13 C4.99653325,0.00177720273 2.57065626,2.27214925 2.57065626,5.12988567 C2.57065626,6.31083457 2.99896128,7.39759193 3.71339537,8.25953358 C4.8552459,9.98341686 6.71153053,11.3900701 3.71339537,13.614235 L0.85565897,13.614235 C0.331385185,13.614235 0.0470333121,13.887035 0.0470332938,14.3846508 L0.0470332938,15.9485862 C0.0470332938,16.401772 0.382035353,16.3102462 0.903643353,16.3102462 L15.5619829,16.3102462 C16.0382723,16.268482 15.9902879,16.4044378 15.9902879,15.9059334 L15.9911765,15.9059334 Z"></path>
                </g>
            </g>
        </g>
    </g>
</svg>