<?xml version="1.0" encoding="UTF-8"?>
<svg width="17px" height="14px" viewBox="0 0 17 14" version="1.1" xmlns="http://www.w3.org/2000/svg" xmlns:xlink="http://www.w3.org/1999/xlink">
    <!-- Generator: Sketch 52.2 (67145) - http://www.bohemiancoding.com/sketch -->
    <title>评价信息确认</title>
    <desc>Created with Sketch.</desc>
    <g id="页面-1" stroke="none" stroke-width="1" fill="none" fill-rule="evenodd">
        <g id="画板" transform="translate(-327.000000, -284.000000)" fill-rule="nonzero">
            <g id="白" transform="translate(327.000000, 146.000000)">
                <g id="评价信息确认" transform="translate(0.000000, 138.000000)">
                    <path d="M14.1241379,0 L0.981891927,0 C0.453180884,0 0,0.453180884 0,0.981891943 L0,11.1029319 C0,11.631643 0.453180901,12.0848239 0.981891927,12.0848239 L14.0486078,12.0848239 C14.5773188,12.0848239 15.0304997,11.631643 15.0304997,11.1029319 L15.0304997,0.981891943 C15.1060299,0.453180901 14.652849,4.6120421e-16 14.1241379,0 Z M7.40195463,8.61043701 L2.11484417,8.61043701 L2.11484417,3.54991701 L7.40195463,3.54991701 L7.40195463,8.61043701 Z M12.9911857,8.61043701 L8.38384657,8.61043701 L8.38384657,7.55301493 L12.9911857,7.55301493 L12.9911857,8.61043701 Z M12.9911857,6.57112299 L8.38384657,6.57112299 L8.38384657,5.58923104 L12.9911857,5.58923104 L12.9911857,6.57112299 Z M12.9911857,4.53180896 L8.38384657,4.53180896 L8.38384657,3.54991701 L12.9911857,3.54991701 L12.9911857,4.53180896 Z" id="形状" fill="#FFFFFF"></path>
                    <path d="M15.2135445,8.3593694 C14.7021067,7.8490599 14.0668369,7.5855682 13.3363816,7.5855682 C12.6045786,7.5855682 11.9694341,7.84887185 11.4592187,8.3593694 C10.9488152,8.87005499 10.686201,9.47924831 10.686201,10.2104245 C10.686201,10.9417573 10.9485331,11.5637068 11.4592187,12.0744551 C11.9694341,12.5860496 12.6045472,12.8474414 13.3363816,12.8474414 C14.067307,12.8474414 14.7019813,12.5858929 15.2135445,12.0744238 C15.7232898,11.5636755 15.9853085,10.9423215 15.9853085,10.2103931 C15.9853085,9.47877818 15.7232898,8.86996097 15.2135445,8.3593694 Z" id="路径" stroke="#FFFFFF" stroke-width="0.5" fill="#43A7E2"></path>
                    <path d="M15.1171994,9.51560497 L13.1842791,11.4232636 C13.0324588,11.5480045 12.8260407,11.5480045 12.674095,11.4232636 L11.556128,10.3185542 C11.2111785,10.027701 11.7219582,9.50291148 12.0533365,9.83482264 L12.922668,10.6908651 L14.6196147,9.03315846 C14.7444497,8.86679543 14.9793888,8.89506586 15.1168546,9.03315846 C15.2688944,9.15808744 15.2688944,9.39243114 15.1168546,9.51569899 L15.1171994,9.51560497 Z" id="路径" fill="#FFFFFF"></path>
                </g>
            </g>
        </g>
    </g>
</svg>