<?xml version="1.0" encoding="UTF-8"?>
<svg width="16px" height="13px" viewBox="0 0 16 13" version="1.1" xmlns="http://www.w3.org/2000/svg" xmlns:xlink="http://www.w3.org/1999/xlink">
    <!-- Generator: Sketch 52.2 (67145) - http://www.bohemiancoding.com/sketch -->
    <title>信息告知</title>
    <desc>Created with Sketch.</desc>
    <g id="页面-1" stroke="none" stroke-width="1" fill="none" fill-rule="evenodd">
        <g id="评价信息告知" transform="translate(-19.000000, -139.000000)" fill="#FFFFFF" fill-rule="nonzero">
            <g id="白" transform="translate(19.000000, 91.000000)">
                <g id="信息告知" transform="translate(0.000000, 48.000000)">
                    <path d="M15.0068966,0 L1.04326017,0 C0.48150469,0 0,0.48150469 0,1.04326019 L0,11.7968652 C0,12.3586207 0.481504707,12.8401254 1.04326017,12.8401254 L14.9266458,12.8401254 C15.4884012,12.8401254 15.9699059,12.3586207 15.9699059,11.7968652 L15.9699059,1.04326019 C16.0501567,0.481504707 15.568652,4.90029473e-16 15.0068966,0 Z M7.86457679,9.14858933 L2.24702193,9.14858933 L2.24702193,3.77178683 L7.86457679,3.77178683 L7.86457679,9.14858933 Z M13.8031348,9.14858933 L8.90783698,9.14858933 L8.90783698,8.02507836 L13.8031348,8.02507836 L13.8031348,9.14858933 Z M13.8031348,6.98181817 L8.90783698,6.98181817 L8.90783698,5.93855798 L13.8031348,5.93855798 L13.8031348,6.98181817 Z M13.8031348,4.81504702 L8.90783698,4.81504702 L8.90783698,3.77178683 L13.8031348,3.77178683 L13.8031348,4.81504702 Z" id="形状"></path>
                </g>
            </g>
        </g>
    </g>
</svg>