<?xml version="1.0" encoding="UTF-8"?>
<svg width="16px" height="17px" viewBox="0 0 16 17" version="1.1" xmlns="http://www.w3.org/2000/svg" xmlns:xlink="http://www.w3.org/1999/xlink">
    <!-- Generator: Sketch 52.2 (67145) - http://www.bohemiancoding.com/sketch -->
    <title>运行预警</title>
    <desc>Created with Sketch.</desc>
    <g id="页面-1" stroke="none" stroke-width="1" fill="none" fill-rule="evenodd">
        <g id="区域洞察-区域概览" transform="translate(-20.000000, -182.000000)" fill="#FFFFFF">
            <g id="分组-18">
                <g id="分组-8" transform="translate(0.000000, 82.000000)">
                    <g id="白" transform="translate(19.000000, 12.000000)">
                        <g id="运行预警" transform="translate(1.000000, 88.000000)">
                            <path d="M3.65107486,14.847267 L2.49228156,14.8473564 L2.49228156,9.47963352 C2.49228156,6.43357318 4.96169832,3.96426369 8.0076514,3.96426369 C11.0536045,3.96426369 13.5229497,6.43357318 13.5229497,9.47963352 L13.5229497,14.8473564 L12.2492067,14.8473564 L3.65107486,14.847267 Z M8.40656089,6.18661899 L5.68581006,10.6677989 L7.86250726,10.6677989 L7.31825698,14.0289073 L10.0390078,9.54747709 L7.8624,9.54747709 L8.40654302,6.18663687 L8.40656089,6.18661899 Z M12.5791821,1.26437542 C12.8345537,1.41300443 12.9218445,1.74003741 12.7745073,1.99615642 L11.796219,3.69707263 L10.8721341,3.16134972 L11.8504045,1.46043352 C11.920817,1.33754599 12.0372894,1.24777666 12.1740574,1.21098289 C12.3108254,1.17418912 12.4566169,1.19340339 12.5791821,1.26437542 Z M8.00602458,0.00446927374 C8.32581006,0.00446927374 8.58511732,0.24584581 8.58511732,0.543678212 L8.58511732,2.47122235 L7.42707486,2.47122235 L7.42707486,0.54357095 C7.42707486,0.245827933 7.68629274,0.00445139665 8.0060067,0.00445139665 L8.00602458,0.00446927374 Z M3.43606704,1.2643933 C3.55864431,1.19342283 3.70444493,1.1742094 3.84122313,1.2110023 C3.97800133,1.2477952 4.09448643,1.33756266 4.1649162,1.4604514 L5.14311508,3.16127821 L4.21892291,3.69700112 L3.2407419,1.99608492 C3.09347039,1.73990615 3.18078212,1.41239777 3.43606704,1.2643933 Z M0.0894212291,4.62410726 C0.15983803,4.5012064 0.276309587,4.41141683 0.413083301,4.37459159 C0.549857016,4.33776635 0.695665793,4.35693902 0.818270391,4.42787039 L2.51260782,5.40998436 L1.9790838,6.33764469 L0.284746369,5.35579888 C0.0295687151,5.2078838 -0.0579396648,4.8803933 0.0894212291,4.62408939 L0.0894212291,4.62410726 Z M15.9257922,4.62410726 C16.0730637,4.88028603 15.9856626,5.20779441 15.7305743,5.35588827 L14.0362369,6.33784134 L13.5027128,5.41016313 L15.1970324,4.42795978 C15.3196069,4.35700081 15.4654022,4.33780333 15.6021672,4.37461396 C15.7389322,4.41142459 15.8553947,4.50120942 15.9257922,4.62410726 Z" id="形状" fill-rule="nonzero"></path>
                            <path d="M0.601260335,14.847267 L15.4139531,14.847267 C15.7335412,14.8490399 15.9916823,15.108617 15.9916823,15.4282101 C15.9916823,15.7478031 15.7335412,16.0073802 15.4139531,16.0091531 L0.601260335,16.0091531 C0.281672166,16.0073802 0.0235310579,15.7478031 0.0235310579,15.4282101 C0.0235310579,15.108617 0.281672166,14.8490399 0.601260335,14.847267 Z" id="路径"></path>
                        </g>
                    </g>
                </g>
            </g>
        </g>
    </g>
</svg>