<?xml version="1.0" encoding="UTF-8"?>
<svg width="16px" height="16px" viewBox="0 0 16 16" version="1.1" xmlns="http://www.w3.org/2000/svg" xmlns:xlink="http://www.w3.org/1999/xlink">
    <!-- Generator: Sketch 52.2 (67145) - http://www.bohemiancoding.com/sketch -->
    <title>结果总览</title>
    <desc>Created with Sketch.</desc>
    <g id="页面-1" stroke="none" stroke-width="1" fill="none" fill-rule="evenodd">
        <g id="评价信息告知" transform="translate(-20.000000, -183.000000)" fill="#FFFFFF" fill-rule="nonzero">
            <g id="白" transform="translate(19.000000, 91.000000)">
                <g id="结果总览" transform="translate(1.000000, 92.000000)">
                    <path d="M15.98168,6.81712825 C15.98168,6.937128 16.0228228,7.05712773 15.98168,7.13712756 C16.0131735,7.39597144 15.8872803,7.6486571 15.6616807,7.77941191 L12.7291156,9.46397972 C12.5318879,9.58416542 12.284059,9.58416542 12.0868313,9.46397972 L11.805689,9.30398006 C11.6008797,9.19127857 11.4736443,8.97603713 11.4736443,8.74226698 C11.4736443,8.50849684 11.6008797,8.2932554 11.805689,8.18055391 L14.9782536,6.33598642 C15.4193955,6.09598694 15.9016802,6.33598642 15.98168,6.81598539 L15.98168,6.81712825 Z M14.6559686,9.78397903 C15.179396,9.50397962 15.8216804,10.0239785 15.620538,10.586263 C15.5405381,10.7874055 15.4193955,11.0274049 15.3393957,11.2285474 C15.3393957,11.2685473 15.2993958,11.2685473 15.2993958,11.3085472 L15.2593959,11.2685473 L14.6571115,10.9074052 C14.4523021,10.7947037 14.3250667,10.5794623 14.3250667,10.3456921 C14.3250667,10.111922 14.4523021,9.89668052 14.6571115,9.78397903 L14.6559686,9.78397903 Z M9.15655181,7.77941191 C8.96311011,7.65715828 8.84282786,7.44698539 8.83540964,7.21827025 L8.83540964,7.01712783 C8.83357872,6.78619182 8.95630737,6.57218099 9.15655181,6.45712902 L14.01597,3.64913503 C14.3274896,3.4821502 14.7151926,3.58747702 14.8993966,3.88913452 C14.9393966,3.96913434 15.0193964,4.09027694 15.0593963,4.17027678 C15.2605387,4.49027609 15.1393961,4.89256095 14.8193968,5.05256061 L9.91769303,7.85941173 C9.72046532,7.97959743 9.47263641,7.97959743 9.2754087,7.85941173 L9.15426609,7.77941191 L9.15655181,7.77941191 Z M9.83883606,4.61141869 C9.63613833,4.73979563 9.37940299,4.74681613 9.16999242,4.62970839 C8.96058184,4.51260065 8.83215239,4.29018618 8.83540964,4.05027703 L8.83540964,3.73027772 C8.83274906,3.49852722 8.95558961,3.28344696 9.15655181,3.16799322 L12.0479742,1.48342539 C12.2879737,1.36342564 12.5702588,1.36342564 12.7702583,1.52342531 C12.8502582,1.56342523 12.9714008,1.64456791 13.0514006,1.72456773 C13.2211399,1.8599012 13.3130898,2.0703308 13.2970869,2.28682668 C13.2810841,2.50332256 13.1591936,2.69794558 12.9714008,2.80685112 L9.83997892,4.61256155 L9.83883606,4.61141869 Z M9.83883606,1.36342566 C9.39769416,1.60342514 8.83540964,1.28342583 8.83540964,0.802284 L8.83540964,0 L8.95540938,0 L9.67883641,0.11999975 C10.2811208,0.241142344 10.4011206,1.04228348 9.83883606,1.36342566 Z M1.56685378,12.7119728 L8.03083994,8.98283789 L14.4959689,12.7119728 C12.9954889,14.784361 10.589388,16.0080401 8.03083994,15.9999657 C5.47229187,16.0080401 3.06619096,14.784361 1.56571094,12.7119728 L1.56685378,12.7119728 Z M7.22855594,0 L7.22855594,7.57941233 L0.722284172,11.3085472 C0.252257427,10.2612612 0.00623932308,9.12732012 0,7.97941147 C-0.000597639815,3.85663065 3.12576712,0.405519384 7.22855594,0 Z" id="形状"></path>
                </g>
            </g>
        </g>
    </g>
</svg>