<?xml version="1.0" encoding="UTF-8"?>
<svg width="14px" height="18px" viewBox="0 0 14 18" version="1.1" xmlns="http://www.w3.org/2000/svg" xmlns:xlink="http://www.w3.org/1999/xlink">
    <!-- Generator: Sketch 52.2 (67145) - http://www.bohemiancoding.com/sketch -->
    <title>任务管理</title>
    <desc>Created with Sketch.</desc>
    <g id="页面-1" stroke="none" stroke-width="1" fill="none" fill-rule="evenodd">
        <g id="任务管理" transform="translate(-21.000000, -91.000000)" fill="#FFFFFF" fill-rule="nonzero">
            <g id="白" transform="translate(20.000000, 91.000000)">
                <g id="任务管理" transform="translate(1.000000, 0.000000)">
                    <path d="M7.03054545,3.25690909 C6.48072727,3.25690909 5.99072727,2.72363636 5.99072727,2.12418182 C5.99072727,1.526 6.48072727,0.994 7.03054545,0.994 C7.64145455,0.994 8.06909091,1.526 8.06909091,2.12545455 C8.07163636,2.85727273 7.58036364,3.25690909 7.03054545,3.25690909 Z M9.90181818,1.52727273 C9.59636364,1.52727273 9.41181818,1.26 9.41181818,0.995272727 C9.41396591,0.451642459 8.97794401,0.00767223967 8.43436364,1.42108547e-14 L5.56181818,1.42108547e-14 C5.01773951,0.00767606452 4.58151548,0.452420091 4.58436364,0.996545455 C4.58436364,1.32872727 4.34,1.52854545 4.09563636,1.52854545 L3.72654545,1.52854545 C3.42236364,1.52854545 3.23781818,1.79581818 3.23781818,2.06054545 L3.23781818,3.65527273 C3.23781818,3.98872727 3.48218182,4.18854545 3.72781818,4.18854545 L10.2072727,4.18854545 C10.5127273,4.18854545 10.6972727,3.92127273 10.6972727,3.65527273 L10.6972727,2.06181818 C10.6972727,1.72963636 10.4529091,1.52981818 10.2072727,1.52981818 L9.90181818,1.52981818 L9.90181818,1.52727273 Z M12.0438182,8.37327273 L6.60290909,15.2905455 C6.482,15.4878182 6.11290909,15.4254545 5.92836364,15.2230909 L2.25909091,11.9674545 C2.19672727,11.9 2.13945455,11.7676364 2.25909091,11.7001818 L2.93363636,10.8347273 C3.00190025,10.7679509 3.11100884,10.7679509 3.17927273,10.8347273 L6.05309091,13.3636364 C6.17272727,13.4298182 6.29745455,13.4298182 6.41963636,13.2974545 L10.9454545,7.31181818 C11.0078182,7.17563636 11.1274545,7.17563636 11.1898182,7.24563636 L12.0463636,8.04109091 C12.1672727,8.10854545 12.2296364,8.17727273 12.0450909,8.37454545 L12.0438182,8.37327273 Z M12.0438182,2.72236364 L12.0438182,5.05272727 C12.0438182,5.38490909 11.7981818,5.58472727 11.5538182,5.58472727 L2.44363636,5.65345455 C2.13818182,5.65345455 1.95490909,5.38745455 1.95490909,5.12145455 L1.95490909,2.79236364 C1.95490909,2.45890909 1.70927273,2.25909091 1.46490909,2.25909091 L1.15945455,2.25909091 C0.365272727,2.19290909 -8.52651283e-14,2.72236364 -8.52651283e-14,3.458 L-8.52651283e-14,16.4245455 C-8.52651283e-14,17.0227273 0.549818182,17.8194545 1.28545455,17.8194545 L12.7145455,17.8194545 C13.328,17.8194545 14,17.0901818 14,16.4245455 L14,3.38545455 C14,2.78727273 13.5723636,2.18909091 12.8978182,2.18909091 L12.5923636,2.18909091 C12.2907273,2.19290909 12.0438182,2.39018182 12.0438182,2.72363636 L12.0438182,2.72236364 Z"></path>
                </g>
            </g>
        </g>
    </g>
</svg>