<?xml version="1.0" encoding="UTF-8"?>
<svg width="16px" height="19px" viewBox="0 0 16 19" version="1.1" xmlns="http://www.w3.org/2000/svg" xmlns:xlink="http://www.w3.org/1999/xlink">
    <!-- Generator: Sketch 52.2 (67145) - http://www.bohemiancoding.com/sketch -->
    <title>任务清单</title>
    <desc>Created with Sketch.</desc>
    <g id="页面-1" stroke="none" stroke-width="1" fill="none" fill-rule="evenodd">
        <g id="画板" transform="translate(-327.000000, -146.000000)" fill="#FFFFFF" fill-rule="nonzero">
            <g id="白" transform="translate(327.000000, 146.000000)">
                <g id="任务清单">
                    <path d="M8,3.64126196 L7.23717263,3.1279552 L5.18398186,5.18114599 L4.15740461,4.15456873 L3.13082737,5.18114599 L5.18398186,7.23430047 L8,3.64126196 Z M8.7259837,5.09322936 L13.0818859,5.09322936 L13.0818859,5.81921306 L8.7259837,5.81921306 L8.7259837,5.09322936 Z M8,7.99716413 L7.23717263,7.48385735 L5.18398186,9.53704814 L4.15740461,8.51047089 L3.13082737,9.53704814 L5.18398186,11.5902026 L8,7.99716413 Z M8.7259837,9.44913151 L13.0818859,9.44913151 L13.0818859,10.1751152 L8.7259837,10.1751152 L8.7259837,9.44913151 Z M15.2598369,0.0113435037 L0.740163057,0.0113435037 C0.338875573,0.0113435037 0.0141793548,0.3364027 0.0141793548,0.737327206 L0.0141793548,18.1609359 C0.0141793548,18.5622233 0.338875553,18.8869196 0.740163057,18.8869196 L10.1779511,18.8869196 L15.9858206,13.8050337 L15.9858206,0.737327186 C15.9858206,0.3364027 15.6611244,0.0113435037 15.2598369,0.0113435037 Z M10.9039348,16.3218739 L10.9039348,13.8050337 L13.7809355,13.8050337 L10.9039348,16.3218739 Z M14.5338532,12.3530663 L10.1779511,12.3530663 C9.7766636,12.3530663 9.45196738,12.6777625 9.45196738,13.07905 L9.45196738,17.4349521 L1.46614676,17.4349521 L1.46614676,1.46331089 L14.5338532,1.46331089 L14.5338532,12.3530663 Z" id="形状"></path>
                </g>
            </g>
        </g>
    </g>
</svg>